<?xml version="1.0" standalone="no"?>
<!DOCTYPE svg PUBLIC "-//W3C//DTD SVG 20010904//EN"
 "http://www.w3.org/TR/2001/REC-SVG-20010904/DTD/svg10.dtd">
<svg version="1.0" xmlns="http://www.w3.org/2000/svg"
 width="284.000000pt" height="284.000000pt" viewBox="0 0 284.000000 284.000000"
 preserveAspectRatio="xMidYMid meet">
<metadata>
Created by potrace 1.14, written by Peter Selinger 2001-2017
</metadata>
<g transform="translate(0.000000,284.000000) scale(0.100000,-0.100000)"
fill="#000000" stroke="none">
<path d="M1135 2237 c-102 -34 -129 -58 -585 -513 -250 -250 -467 -473 -481
-497 -62 -102 -80 -221 -50 -332 72 -263 382 -386 616 -243 27 17 175 156 329
310 153 154 276 274 273 267 -78 -180 -82 -281 -16 -414 109 -217 393 -294
594 -159 28 18 253 237 501 486 365 365 456 463 474 503 60 133 61 252 2 375
-79 164 -277 260 -456 220 -115 -25 -144 -49 -454 -359 -162 -161 -293 -290
-290 -285 2 5 16 34 31 65 49 101 55 209 18 314 -38 109 -111 187 -221 239
-55 26 -79 31 -155 33 -55 2 -106 -2 -130 -10z"/>
</g>
</svg>
