<svg id="Layer_1" data-name="Layer 1" xmlns="http://www.w3.org/2000/svg" viewBox="0 0 921.59 71.61"><defs><style>.cls-1{fill:#8d633a;}.cls-2{fill:#fcb663;}.cls-3{fill:#603a17;}.cls-4{fill:#f3828c;}.cls-5{fill:#b2d56d;}.cls-6{fill:#ffecd8;}.cls-7{fill:#75c9f1;}.cls-8{fill:#b999c8;}</style></defs><title>2</title><path class="cls-1" d="M165.82,255.54c-1.14,0-2.27,0-3.41,0-44-.64-85.25-13.78-113.22-36a1.18,1.18,0,0,1,1.48-1.85c53.82,42.84,162.9,51.94,228.33,0a1.18,1.18,0,1,1,1.47,1.85c-15.4,12.23-33.9,21.56-55,27.75A211.91,211.91,0,0,1,165.82,255.54Z" transform="translate(-48.75 -217.37)"/><path class="cls-2" d="M172.14,272.76c0,6.36-3.37,16.21-7.53,16.21s-7.54-9.85-7.54-16.21,3.38-6.81,7.54-6.81S172.14,266.41,172.14,272.76Z" transform="translate(-48.75 -217.37)"/><path class="cls-3" d="M167.66,266h-6.11a1.32,1.32,0,0,1-1.36-1.44l.81-8.78a1.17,1.17,0,0,1,1.24-.91H167a1.16,1.16,0,0,1,1.23.91l.81,8.78A1.31,1.31,0,0,1,167.66,266Z" transform="translate(-48.75 -217.37)"/><rect class="cls-1" x="110.47" y="47.55" width="10.55" height="2.07" rx="0.53"/><path class="cls-4" d="M219.94,267.15c1.32,6.22.06,16.56-4,17.42s-9.41-8.08-10.73-14.3,1.89-7.36,6-8.23S218.62,260.93,219.94,267.15Z" transform="translate(-48.75 -217.37)"/><path class="cls-3" d="M214.15,261.41l-6,1.27a1.32,1.32,0,0,1-1.63-1.12l-1-8.77a1.17,1.17,0,0,1,1-1.14l4.63-1a1.17,1.17,0,0,1,1.4.63l2.61,8.43A1.32,1.32,0,0,1,214.15,261.41Z" transform="translate(-48.75 -217.37)"/><rect class="cls-1" x="205.77" y="261.03" width="10.55" height="2.07" rx="0.53" transform="translate(-98.44 -167.98) rotate(-11.95)"/><path class="cls-5" d="M263.44,251.8c2.44,5.87,3.12,16.26-.72,17.86S252,263.47,249.53,257.6s.49-7.59,4.33-9.19S261,245.93,263.44,251.8Z" transform="translate(-48.75 -217.37)"/><path class="cls-3" d="M256.68,247.23,251,249.58a1.32,1.32,0,0,1-1.81-.8l-2.63-8.42a1.17,1.17,0,0,1,.79-1.31l4.38-1.83a1.18,1.18,0,0,1,1.49.36l4.13,7.8A1.33,1.33,0,0,1,256.68,247.23Z" transform="translate(-48.75 -217.37)"/><rect class="cls-1" x="248.48" y="247.42" width="10.55" height="2.07" rx="0.53" transform="translate(-124.8 -100.63) rotate(-22.62)"/><path class="cls-5" d="M66.82,250.6c-2.72,5.75-3.88,16.1-.12,17.88s11-5.68,13.74-11.43-.13-7.61-3.89-9.39S69.55,244.85,66.82,250.6Z" transform="translate(-48.75 -217.37)"/><path class="cls-3" d="M73.79,246.35,79.31,249a1.32,1.32,0,0,0,1.84-.71l3-8.29a1.16,1.16,0,0,0-.73-1.35l-4.28-2a1.18,1.18,0,0,0-1.51.29l-4.49,7.6A1.31,1.31,0,0,0,73.79,246.35Z" transform="translate(-48.75 -217.37)"/><rect class="cls-1" x="71.37" y="246.68" width="10.55" height="2.07" rx="0.53" transform="translate(-8.79 287.03) rotate(-154.67)"/><path class="cls-4" d="M109.49,266.46c-1.24,6.24.15,16.56,4.24,17.37s9.3-8.2,10.54-14.44-2-7.34-6.06-8.15S110.73,260.23,109.49,266.46Z" transform="translate(-48.75 -217.37)"/><path class="cls-3" d="M115.21,260.65l6,1.19a1.33,1.33,0,0,0,1.62-1.14l.91-8.78a1.17,1.17,0,0,0-1-1.13l-4.64-.92a1.16,1.16,0,0,0-1.39.64L114.15,259A1.32,1.32,0,0,0,115.21,260.65Z" transform="translate(-48.75 -217.37)"/><rect class="cls-1" x="113.04" y="260.23" width="10.55" height="2.07" rx="0.53" transform="translate(134.79 323.19) rotate(-168.78)"/><path class="cls-1" d="M625.43,255.54l-3.41,0c-44-.64-85.24-13.78-113.21-36a1.18,1.18,0,1,1,1.47-1.85c53.82,42.84,162.91,51.94,228.34,0a1.18,1.18,0,1,1,1.46,1.85c-15.4,12.23-33.9,21.56-55,27.75A212,212,0,0,1,625.43,255.54Z" transform="translate(-48.75 -217.37)"/><path class="cls-2" d="M631.76,272.76c0,6.36-3.38,16.21-7.54,16.21s-7.53-9.85-7.53-16.21,3.37-6.81,7.53-6.81S631.76,266.41,631.76,272.76Z" transform="translate(-48.75 -217.37)"/><path class="cls-3" d="M627.28,266h-6.11a1.31,1.31,0,0,1-1.36-1.44l.81-8.78a1.16,1.16,0,0,1,1.23-.91h4.74a1.17,1.17,0,0,1,1.24.91l.81,8.78A1.32,1.32,0,0,1,627.28,266Z" transform="translate(-48.75 -217.37)"/><rect class="cls-1" x="570.09" y="47.55" width="10.55" height="2.07" rx="0.53"/><path class="cls-4" d="M679.55,267.15c1.32,6.22.06,16.56-4,17.42s-9.41-8.08-10.73-14.3,1.89-7.36,6-8.23S678.24,260.93,679.55,267.15Z" transform="translate(-48.75 -217.37)"/><path class="cls-3" d="M673.76,261.41l-6,1.27a1.33,1.33,0,0,1-1.63-1.12l-1-8.77a1.17,1.17,0,0,1,1-1.14l4.63-1a1.17,1.17,0,0,1,1.4.63l2.61,8.43A1.3,1.3,0,0,1,673.76,261.41Z" transform="translate(-48.75 -217.37)"/><rect class="cls-1" x="665.39" y="261.03" width="10.55" height="2.07" rx="0.53" transform="translate(-88.48 -72.8) rotate(-11.95)"/><path class="cls-5" d="M723.05,251.8c2.45,5.87,3.12,16.26-.72,17.86s-10.74-6.19-13.19-12.06.49-7.59,4.33-9.19S720.6,245.93,723.05,251.8Z" transform="translate(-48.75 -217.37)"/><path class="cls-3" d="M716.3,247.23l-5.65,2.35a1.31,1.31,0,0,1-1.8-.8l-2.64-8.42a1.17,1.17,0,0,1,.8-1.31l4.37-1.83a1.18,1.18,0,0,1,1.49.36l4.13,7.8A1.32,1.32,0,0,1,716.3,247.23Z" transform="translate(-48.75 -217.37)"/><rect class="cls-1" x="708.1" y="247.42" width="10.55" height="2.07" rx="0.53" transform="translate(-89.43 76.18) rotate(-22.62)"/><path class="cls-5" d="M526.44,250.6c-2.72,5.75-3.89,16.1-.13,17.88s11-5.68,13.75-11.43-.13-7.61-3.9-9.39S529.16,244.85,526.44,250.6Z" transform="translate(-48.75 -217.37)"/><path class="cls-3" d="M533.4,246.35l5.53,2.62a1.32,1.32,0,0,0,1.84-.71l3-8.29a1.18,1.18,0,0,0-.74-1.35l-4.28-2a1.17,1.17,0,0,0-1.5.29l-4.49,7.6A1.31,1.31,0,0,0,533.4,246.35Z" transform="translate(-48.75 -217.37)"/><rect class="cls-1" x="530.99" y="246.68" width="10.55" height="2.07" rx="0.53" transform="translate(866.25 483.66) rotate(-154.67)"/><path class="cls-4" d="M569.1,266.46c-1.23,6.24.16,16.56,4.24,17.37s9.31-8.2,10.54-14.44-2-7.34-6.06-8.15S570.34,260.23,569.1,266.46Z" transform="translate(-48.75 -217.37)"/><path class="cls-3" d="M574.82,260.65l6,1.19a1.31,1.31,0,0,0,1.61-1.14l.92-8.78a1.18,1.18,0,0,0-1-1.13l-4.65-.92a1.17,1.17,0,0,0-1.39.64l-2.5,8.47A1.31,1.31,0,0,0,574.82,260.65Z" transform="translate(-48.75 -217.37)"/><rect class="cls-1" x="572.65" y="260.23" width="10.55" height="2.07" rx="0.53" transform="matrix(-0.98, -0.19, 0.19, -0.98, 1045.24, 412.6)"/><path class="cls-1" d="M395.74,255.26c-.95,0-1.89,0-2.83,0a223.41,223.41,0,0,1-62.28-9.53c-20.21-6.23-37.58-15.06-51.63-26.24a1.18,1.18,0,0,1,1.47-1.85c59.06,47,170,47,228.33,0a1.18,1.18,0,1,1,1.48,1.84c-15,12.05-33.2,21.29-54.23,27.45A217.29,217.29,0,0,1,395.74,255.26Z" transform="translate(-48.75 -217.37)"/><path class="cls-6" d="M402,272.76c0,6.36-3.37,16.21-7.54,16.21s-7.53-9.85-7.53-16.21,3.37-6.81,7.53-6.81S402,266.41,402,272.76Z" transform="translate(-48.75 -217.37)"/><path class="cls-3" d="M397.47,266h-6.11a1.32,1.32,0,0,1-1.36-1.44l.81-8.78a1.17,1.17,0,0,1,1.24-.91h4.73a1.17,1.17,0,0,1,1.24.91l.81,8.78A1.32,1.32,0,0,1,397.47,266Z" transform="translate(-48.75 -217.37)"/><rect class="cls-1" x="340.28" y="47.55" width="10.55" height="2.07" rx="0.53"/><path class="cls-4" d="M449.75,267.15c1.31,6.22.05,16.56-4,17.42s-9.41-8.08-10.72-14.3,1.88-7.36,5.95-8.23S448.43,260.93,449.75,267.15Z" transform="translate(-48.75 -217.37)"/><path class="cls-3" d="M444,261.41l-6,1.27a1.31,1.31,0,0,1-1.62-1.12l-1-8.77a1.17,1.17,0,0,1,1-1.14l4.64-1a1.17,1.17,0,0,1,1.4.63l2.61,8.43A1.32,1.32,0,0,1,444,261.41Z" transform="translate(-48.75 -217.37)"/><rect class="cls-1" x="435.58" y="261.03" width="10.55" height="2.07" rx="0.53" transform="translate(-93.46 -120.39) rotate(-11.95)"/><path class="cls-5" d="M493.24,251.8c2.45,5.87,3.13,16.26-.71,17.86s-10.75-6.19-13.19-12.06.49-7.59,4.33-9.19S490.8,245.93,493.24,251.8Z" transform="translate(-48.75 -217.37)"/><path class="cls-3" d="M486.49,247.23l-5.64,2.35a1.32,1.32,0,0,1-1.81-.8l-2.63-8.42a1.16,1.16,0,0,1,.79-1.31l4.37-1.83a1.17,1.17,0,0,1,1.49.36l4.13,7.8A1.32,1.32,0,0,1,486.49,247.23Z" transform="translate(-48.75 -217.37)"/><rect class="cls-1" x="478.29" y="247.42" width="10.55" height="2.07" rx="0.53" transform="translate(-107.11 -12.22) rotate(-22.62)"/><path class="cls-7" d="M296.63,250.6c-2.72,5.75-3.88,16.1-.12,17.88s11-5.68,13.74-11.43-.13-7.61-3.89-9.39S299.35,244.85,296.63,250.6Z" transform="translate(-48.75 -217.37)"/><path class="cls-3" d="M303.6,246.35l5.52,2.62a1.32,1.32,0,0,0,1.84-.71l3-8.29a1.18,1.18,0,0,0-.73-1.35l-4.28-2a1.18,1.18,0,0,0-1.51.29l-4.49,7.6A1.31,1.31,0,0,0,303.6,246.35Z" transform="translate(-48.75 -217.37)"/><rect class="cls-1" x="301.18" y="246.68" width="10.55" height="2.07" rx="0.53" transform="translate(428.73 385.35) rotate(-154.67)"/><path class="cls-8" d="M339.3,266.46c-1.24,6.24.15,16.56,4.23,17.37s9.31-8.2,10.55-14.44-2-7.34-6.07-8.15S340.53,260.23,339.3,266.46Z" transform="translate(-48.75 -217.37)"/><path class="cls-3" d="M345,260.65l6,1.19a1.31,1.31,0,0,0,1.61-1.14l.92-8.78a1.17,1.17,0,0,0-1-1.13l-4.65-.92a1.17,1.17,0,0,0-1.39.64L344,259A1.32,1.32,0,0,0,345,260.65Z" transform="translate(-48.75 -217.37)"/><rect class="cls-1" x="342.84" y="260.23" width="10.55" height="2.07" rx="0.53" transform="translate(590.02 367.89) rotate(-168.78)"/><path class="cls-1" d="M855.35,255.26c-.94,0-1.89,0-2.83,0a223.28,223.28,0,0,1-62.27-9.53c-20.22-6.23-37.59-15.06-51.63-26.24a1.18,1.18,0,0,1,1.47-1.85c59,47,170,47,228.33,0a1.18,1.18,0,0,1,1.48,1.84c-15,12.05-33.21,21.29-54.23,27.45A217.36,217.36,0,0,1,855.35,255.26Z" transform="translate(-48.75 -217.37)"/><path class="cls-6" d="M861.56,272.76c0,6.36-3.37,16.21-7.53,16.21s-7.53-9.85-7.53-16.21S849.87,266,854,266,861.56,266.41,861.56,272.76Z" transform="translate(-48.75 -217.37)"/><path class="cls-3" d="M857.09,266H851a1.32,1.32,0,0,1-1.36-1.44l.81-8.78a1.17,1.17,0,0,1,1.24-.91h4.74a1.18,1.18,0,0,1,1.24.91l.8,8.78A1.31,1.31,0,0,1,857.09,266Z" transform="translate(-48.75 -217.37)"/><rect class="cls-1" x="799.89" y="47.55" width="10.55" height="2.07" rx="0.53"/><path class="cls-4" d="M909.36,267.15c1.32,6.22.06,16.56-4,17.42s-9.41-8.08-10.73-14.3,1.89-7.36,6-8.23S908,260.93,909.36,267.15Z" transform="translate(-48.75 -217.37)"/><path class="cls-3" d="M903.57,261.41l-6,1.27a1.32,1.32,0,0,1-1.63-1.12l-1-8.77a1.17,1.17,0,0,1,1-1.14l4.63-1a1.17,1.17,0,0,1,1.4.63l2.61,8.43A1.32,1.32,0,0,1,903.57,261.41Z" transform="translate(-48.75 -217.37)"/><rect class="cls-1" x="895.19" y="261.03" width="10.55" height="2.07" rx="0.53" transform="translate(-83.5 -25.21) rotate(-11.95)"/><path class="cls-5" d="M952.86,251.8c2.44,5.87,3.12,16.26-.72,17.86S941.4,263.47,939,257.6s.49-7.59,4.33-9.19S950.41,245.93,952.86,251.8Z" transform="translate(-48.75 -217.37)"/><path class="cls-3" d="M946.1,247.23l-5.64,2.35a1.32,1.32,0,0,1-1.81-.8L936,240.36a1.17,1.17,0,0,1,.8-1.31l4.37-1.83a1.18,1.18,0,0,1,1.49.36l4.13,7.8A1.33,1.33,0,0,1,946.1,247.23Z" transform="translate(-48.75 -217.37)"/><rect class="cls-1" x="937.9" y="247.42" width="10.55" height="2.07" rx="0.53" transform="translate(-71.74 164.58) rotate(-22.62)"/><path class="cls-7" d="M756.25,250.6c-2.72,5.75-3.89,16.1-.13,17.88s11-5.68,13.74-11.43-.13-7.61-3.89-9.39S759,244.85,756.25,250.6Z" transform="translate(-48.75 -217.37)"/><path class="cls-3" d="M763.21,246.35l5.52,2.62a1.33,1.33,0,0,0,1.85-.71l3-8.29a1.16,1.16,0,0,0-.73-1.35l-4.28-2a1.18,1.18,0,0,0-1.51.29l-4.49,7.6A1.31,1.31,0,0,0,763.21,246.35Z" transform="translate(-48.75 -217.37)"/><rect class="cls-1" x="760.8" y="246.68" width="10.55" height="2.07" rx="0.53" transform="translate(1303.77 581.98) rotate(-154.67)"/><path class="cls-8" d="M798.91,266.46c-1.24,6.24.16,16.56,4.24,17.37s9.3-8.2,10.54-14.44-2-7.34-6.06-8.15S800.15,260.23,798.91,266.46Z" transform="translate(-48.75 -217.37)"/><path class="cls-3" d="M804.63,260.65l6,1.19a1.33,1.33,0,0,0,1.62-1.14l.91-8.78a1.17,1.17,0,0,0-1-1.13l-4.64-.92a1.16,1.16,0,0,0-1.39.64L803.57,259A1.32,1.32,0,0,0,804.63,260.65Z" transform="translate(-48.75 -217.37)"/><rect class="cls-1" x="802.46" y="260.23" width="10.55" height="2.07" rx="0.53" transform="translate(1500.46 457.3) rotate(-168.78)"/></svg>