<?xml version="1.0" encoding="utf-8"?>
<!-- Uploaded to: SVG Repo, www.svgrepo.com, Generator: SVG Repo Mixer Tools -->
<svg width="800px" height="800px" viewBox="0 -68.22 347.826 347.826" xmlns="http://www.w3.org/2000/svg"><defs><style>.a{fill:#ffffff;}.b{fill:#f2635f;}.c{fill:#211715;}.d{fill:#74c66d;}</style></defs><path class="a" d="M282.884,113.187,277.6,92.677c-1.372-5.326,1.017-9.619,5.607-10.87,4.413-1.2,8.823.368,10.19,5.673.849,3.3,4.269,4.284,7.362,3.487a6.221,6.221,0,0,0,4.112-7.779c-1.743-6.766-4.539-9.617-8.086-12.428-4.6-3.648-10.776-4.146-17.017-2.538-5.468,1.409-9.527,4.165-12.021,7.805-3.206,4.681-3.426,10.932-1.218,19.5l17.223,66.848.06.233c1.007,3.911,4.148,5.315,7.241,4.518,2.731-.7,4.978-2.917,3.915-7.042l-.145-.562Z"/><path class="b" d="M286.35,80.994l-.012.267a7.152,7.152,0,0,1,5.18,2.323l.014,0c3.057-2.869,6.5-6.27,9.412-9.044a24.965,24.965,0,0,0-4.126-3.951A16.331,16.331,0,0,0,287.01,67.2C286.836,71.017,286.468,78.552,286.35,80.994Z"/><path class="b" d="M267.784,75.852a15.755,15.755,0,0,0-2.631,8.221c3.879,1.031,8.409,2.312,12.354,3.311a7.671,7.671,0,0,1,3.346-4.71c-1.34-2.154-5.475-8.874-7.424-12.029A17.852,17.852,0,0,0,267.784,75.852Z"/><path class="b" d="M267.553,99.192,271,112.59c3.608-.307,8.1-.666,11.556-.984l-3.452-13.4C275.655,98.52,271.159,98.879,267.553,99.192Z"/><path class="b" d="M274.458,125.994l3.452,13.4c3.6-.32,8.1-.673,11.555-.983l-3.452-13.4C282.56,125.321,278.064,125.68,274.458,125.994Z"/><path class="b" d="M283.788,162.205l.06.234c1.008,3.911,4.148,5.316,7.241,4.519,2.729-.7,4.98-2.918,3.918-7.042l-.146-.564-1.942-7.54c-3.453.31-7.95.67-11.556.983Z"/><path class="c" d="M284.812,112.655,280.5,95.919c-.925-3.592-2.638-8.251.89-11.044,2.657-2.1,7.288-2.091,9.188.983a19.364,19.364,0,0,1,1.2,3.041,6.578,6.578,0,0,0,2.081,2.759,8.374,8.374,0,0,0,6.462,1.427c4.976-.758,7.6-5.738,6.476-10.428a22.862,22.862,0,0,0-6.4-11.433,20.152,20.152,0,0,0-13.113-5.847,27.234,27.234,0,0,0-15.043,3.8,18.71,18.71,0,0,0-8.209,9.915c-1.576,4.714-1.007,9.93.021,14.693,1.771,8.207,4.16,16.324,6.255,24.455l7.147,27.743,3.149,12.222c.944,3.663,1.458,8.252,5.157,10.23,3.543,1.894,8.784.7,10.675-3.017,1.107-2.174.819-4.444.233-6.72l-1.652-6.411L286.9,120.759l-2.088-8.1c-.642-2.491-4.5-1.435-3.857,1.064l7.908,30.691,3.393,13.171c.427,1.658,1.372,3.766.847,5.476a3.614,3.614,0,0,1-3.182,2.269c-3.74.423-4.283-3.643-4.985-6.365L282.1,147.956l-6.633-25.746-6.126-23.776c-1.933-7.5-4.547-16.717,1.5-23.067,3.142-3.3,7.568-5.046,12-5.754,4.566-.73,9.313-.019,12.984,2.928a19.007,19.007,0,0,1,6.378,8.723c.689,1.984,1.476,4.235.2,6.157a4.33,4.33,0,0,1-4.221,1.787c-1.931-.211-2.515-1.315-3.076-2.992a10.078,10.078,0,0,0-3.657-5.133c-3.239-2.3-7.951-2.082-11.315-.159a10.252,10.252,0,0,0-4.824,10.295,52.866,52.866,0,0,0,1.577,6.722l1.93,7.491,2.135,8.287C281.6,116.21,285.456,115.154,284.812,112.655Z"/><path class="c" d="M284.976,67.371q-.327,6.9-.662,13.8a2,2,0,0,0,4,0q.342-6.9.662-13.8a2,2,0,1,0-4,0Z"/><path class="c" d="M282.75,82.331a5.463,5.463,0,0,0-.744-1.362l-.78-1.264-2.073-3.362q-2.014-3.267-4.033-6.533a2,2,0,0,0-3.454,2.019q1.977,3.194,3.946,6.391l2.015,3.268.807,1.31.336.544c.057.091.109.188.171.277.15.214.119.421-.048-.225a2,2,0,1,0,3.857-1.063Z"/><path class="c" d="M292.016,85.687a4.535,4.535,0,0,0,1.735-1.312q.616-.583,1.23-1.171,1.255-1.2,2.5-2.411c1.611-1.559,3.217-3.122,4.839-4.668a2.019,2.019,0,0,0,0-2.829,2.04,2.04,0,0,0-2.828,0c-3.151,3-6.243,6.068-9.417,9.046l.883-.514-.008,0a2,2,0,0,0,1.063,3.857Z"/><path class="c" d="M264.581,86.174c4.123,1.1,8.229,2.257,12.364,3.308a2,2,0,1,0,1.063-3.857c-4.135-1.051-8.241-2.212-12.364-3.308a2,2,0,1,0-1.063,3.857Z"/><path class="c" d="M292.88,149.986c-3.85.343-7.7.645-11.555.978a2.044,2.044,0,0,0-2,2,2.022,2.022,0,0,0,2,2c3.851-.333,7.7-.635,11.555-.978a2,2,0,0,0,0-4Z"/><path class="c" d="M289.426,136.582c-3.85.342-7.7.644-11.554.978a2,2,0,0,0,0,4c3.851-.334,7.7-.636,11.554-.978a2.044,2.044,0,0,0,2-2,2.022,2.022,0,0,0-2-2Z"/><path class="c" d="M285.975,123.185c-3.85.343-7.7.645-11.555.978a2.044,2.044,0,0,0-2,2,2.022,2.022,0,0,0,2,2c3.851-.333,7.7-.635,11.555-.978a2,2,0,0,0,0-4Z"/><path class="c" d="M282.521,109.781c-3.849.351-7.7.653-11.554.978a2,2,0,0,0,0,4c3.851-.325,7.705-.627,11.554-.978a2.044,2.044,0,0,0,2-2,2.022,2.022,0,0,0-2-2Z"/><path class="c" d="M279.069,96.384c-3.85.343-7.7.645-11.554.979a2,2,0,0,0,0,4c3.851-.334,7.7-.636,11.554-.979a2,2,0,0,0,0-4Z"/><path class="a" d="M316.618,116.293c.657-1.792.508-3.585-.374-6.124a10.773,10.773,0,0,0-1.508-2.742c-1.39-1.839-4.021-2.285-6.285-1.85-13.17,2.532-26.881,5.534-42.047,9.342a5.277,5.277,0,0,0-3.72,4.66c.006,3.358.184,4.161,1.366,8.11.964,3.218,3.233,4.567,5.915,4.055,14.4-2.748,32.38-6.31,43.188-9.656a20.557,20.557,0,0,0,2.306-3.2C316.019,117.758,316.618,116.293,316.618,116.293Z"/><path class="b" d="M300.862,197.388c-2.68-.14-5.221-.361-7.483-.676-6.194-.872-9.8-3.2-13.5-7.829-2.538-3.172-4.011-8.012-4.721-13.023-1.43-9.657-4.2-33.938-6.441-44.014a5.566,5.566,0,0,0,1.244-.1c13.8-2.633,30.88-6.013,41.793-9.235,1.094,8.809,3.331,23.895,5.515,29.639,1.656,4.366,9.141,5.055,13.453,6.861,4.872,2.043,9.689,4.571,12.421,9.076a20.839,20.839,0,0,1,2.15,15.055c-1.72,6.7-6.721,11.216-13.463,12.733C326.367,197.111,312.346,197.988,300.862,197.388Z"/><path class="c" d="M309.757,122.511c.888,7.119,1.9,14.239,3.307,21.276a59.129,59.129,0,0,0,2.138,8.5c1.133,3.142,3.674,4.781,6.672,5.951s6.174,1.741,9.119,3.042c3.5,1.544,7.07,3.423,9.5,6.465,4.432,5.551,4.533,14.525.386,20.233-3.563,4.9-9.4,6.19-14.967,6.775a164.456,164.456,0,0,1-21.229.775,102.382,102.382,0,0,1-10.384-.7,18.354,18.354,0,0,1-9.1-3.366,19.206,19.206,0,0,1-6.3-8.546,49.483,49.483,0,0,1-2.19-10.234c-1.756-12.71-3.071-25.511-5.413-38.133-.2-1.1-.366-2.239-.673-3.315-.706-2.471-4.567-1.421-3.857,1.063a69.142,69.142,0,0,1,1.466,7.924c.554,3.433,1.052,6.875,1.531,10.319.937,6.737,1.784,13.487,2.686,20.229.985,7.358,1.881,14.844,6.959,20.654a20.977,20.977,0,0,0,8.675,6.079,39.571,39.571,0,0,0,10.659,1.751,161.469,161.469,0,0,0,22.667-.111c6.1-.427,12.778-.795,18-4.335,6.454-4.38,9.238-12.022,8.207-19.618a19.921,19.921,0,0,0-5.193-11.281c-2.851-2.958-6.586-4.884-10.322-6.477-3.085-1.315-6.428-1.868-9.5-3.187a7.1,7.1,0,0,1-3.114-2.166,11.108,11.108,0,0,1-1.205-3.416,174.286,174.286,0,0,1-3.9-21.429q-.328-2.361-.622-4.727a2.065,2.065,0,0,0-2-2,2.012,2.012,0,0,0-2,2Z"/><path class="c" d="M318.546,116.824c1.306-3.838-.228-9.393-3.5-11.859-3.676-2.767-8.571-1.048-12.62-.238q-14.763,2.953-29.4,6.5c-4.344,1.05-10.313,1.468-12.022,6.413a12.693,12.693,0,0,0-.1,5.639,26.24,26.24,0,0,0,1.469,5.651,7.556,7.556,0,0,0,3.474,4.191c1.924.965,3.806.715,5.841.325q6.87-1.314,13.725-2.7c9.481-1.928,19.023-3.883,28.277-6.733,2.453-.755,1.407-4.617-1.063-3.857-7.056,2.173-14.288,3.78-21.5,5.322q-6.131,1.311-12.283,2.513-3.1.613-6.209,1.21c-1.35.259-3.09.931-4.463.555-1.4-.384-1.943-1.8-2.322-3.061a24.411,24.411,0,0,1-1.059-4.357c-.143-1.343-.429-3.13.459-4.26,1.215-1.546,3.525-1.693,5.3-2.13q13.092-3.226,26.29-6,3.43-.72,6.869-1.406c2.091-.418,4.354-1.154,6.5-1.118a4.108,4.108,0,0,1,3.862,2.688,7.455,7.455,0,0,1,.634,5.649c-.83,2.443,3.032,3.491,3.857,1.063Z"/><path class="b" d="M194.708,5.287a25.169,25.169,0,0,0-1.423,3.441c-.377,1.069-.732,2.145-1.045,3.24A4.743,4.743,0,0,0,192,13.861c.108.831,1.48,2.452,2.046,3.051l57.211.006a7.488,7.488,0,0,0,2.071-3.057,4.726,4.726,0,0,0-.242-1.893c-.312-1.1-.667-2.171-1.045-3.24-.85-2.409-1.962-5.442-4.3-6.417-1.562-.652-3.307-.219-4.914.281a100.251,100.251,0,0,0-19.2,8.8,2.106,2.106,0,0,1-2.036.036c-6.208-3.253-12.324-6.726-19.1-8.837-1.607-.5-3.353-.933-4.915-.281A6.175,6.175,0,0,0,194.708,5.287Z"/><path class="c" d="M195.13,15.136c-.556-.647-1.248-1.282-1.085-2.17a27.961,27.961,0,0,1,1.4-4.347c.56-1.541,1.334-3.938,3.065-4.52a5.9,5.9,0,0,1,3.457.422c1.466.452,2.91.98,4.333,1.553,2.528,1.018,4.981,2.223,7.406,3.465,1.221.626,2.435,1.266,3.648,1.908a22.6,22.6,0,0,0,4.111,2.072,4.818,4.818,0,0,0,3.772-.733q1.893-1.06,3.808-2.08c4.9-2.594,10.123-5.234,15.545-6.532a3.2,3.2,0,0,1,3.218.569,8.287,8.287,0,0,1,1.7,2.885c.521,1.284.961,2.614,1.369,3.938a4.812,4.812,0,0,1,.467,2c-.131.575-.884,1.235-1.243,1.639-1.705,1.918,1.114,4.757,2.829,2.829a8.678,8.678,0,0,0,2.324-3.647c.377-1.75-.421-3.649-.97-5.277-.856-2.537-1.757-5.434-3.769-7.318C248.024-.536,244.87-.158,241.856.8a80.266,80.266,0,0,0-9.485,3.775c-3.049,1.422-6.022,3-8.957,4.643-.973.544-1.042.361-2.024-.157l-2.02-1.07c-1.483-.785-2.967-1.567-4.464-2.324a88.526,88.526,0,0,0-9.259-4.114c-2.931-1.082-6.373-2.405-9.373-.833-2.765,1.448-3.945,4.713-4.917,7.473-.622,1.766-1.513,3.758-1.359,5.665.13,1.6,1.3,2.939,2.3,4.1,1.68,1.955,4.5-.885,2.828-2.829Z"/><path class="d" d="M266.675,18.007a1.059,1.059,0,0,0-1.04-1.08l-85.451-.015a1.055,1.055,0,0,0-1.034,1.079c-.007,4.309-.046,17.035-.057,20.837a1.053,1.053,0,0,0,1.033,1.084l3.648,0c.028,29.419.207,136.621.207,147.087,12.765,0,70.4.482,78.283.482,0-6.939.055-118.441.068-147.6H265.7a1.057,1.057,0,0,0,1.033-1.089C266.72,35.261,266.679,24,266.675,18.007Z"/><path class="b" d="M216.386,17.18c.017,14.892.1,152.5.111,169.989,4.5.036,9.118.075,13.568.112-.018-17.463-.1-155.17-.114-170.1Z"/><path class="c" d="M229.95,41.892q15.033,0,30.065-.008l4.482,0a14.388,14.388,0,0,0,1.469-.036,3.03,3.03,0,0,0,2.732-2.765c.148-1.518.024-3.1.019-4.625L268.7,27.9q-.01-3.472-.019-6.946c-.006-2.131.423-5.184-2.236-5.922-1.5-.417-3.465-.111-5.007-.111l-16.125,0-43.366-.006H180.75a3.256,3.256,0,0,0-3.6,3.252c-.073,1.57-.008,3.161-.012,4.732q-.018,6.148-.037,12.3c0,1.468-.286,3.316.2,4.718.677,1.945,2.569,2,4.287,2l26.82-.009h7.981c2.574,0,2.578-4,0-4q-14.485,0-28.972.008l-4.778,0h-1.621a2.306,2.306,0,0,0-.61,0h-.061q-.779-.041.742.92c.058-.1-.01-.372,0-.485.131-1.4.008-2.866.012-4.269l.018-5.969q.009-2.9.017-5.794,0-1.188.007-2.375c0-.336,0-.671,0-1.007a2.321,2.321,0,0,0,0-.4v-.279q.036-.705-.905.658a5,5,0,0,0,1.611,0h2.183l14.451,0,40.6,0,17.576,0h8.137a2.362,2.362,0,0,0,.746,0l-.883-.91v.405a3.85,3.85,0,0,0,0,.7q0,.759,0,1.516.015,6.371.037,12.742.009,2.451.016,4.9a1.457,1.457,0,0,0,0,.35c.244.474.8-.9.865-.749a4.8,4.8,0,0,0-.635,0H263.4q-13.062,0-26.126.008h-7.32c-2.574,0-2.578,4,0,4Z"/><path class="c" d="M181.77,41.656q-.006,8.279.018,16.557.024,16.509.05,33.018.032,19.587.062,39.172.029,17.51.054,35.018.015,10.278.027,20.555V187a2.028,2.028,0,0,0,2,2c9.938,0,19.877.095,29.815.163q18.539.128,37.077.26c3.8.025,7.594.059,11.391.059a2.029,2.029,0,0,0,2-2q0-8.662.007-17.325.007-17.49.017-34.981.009-20.433.02-40.867.009-17.492.017-34.983c0-5.769.153-11.56.009-17.329,0-.112,0-.226,0-.338,0-2.574-4-2.578-4,0q0,7.148-.007,14.294-.007,16.71-.017,33.42-.009,20.388-.02,40.776-.009,18.18-.017,36.36,0,10.088-.009,20.175v.8l2-2c-8.776,0-17.552-.1-26.327-.163q-19.026-.135-38.052-.259c-4.635-.027-9.269-.059-13.9-.06l2,2q0-9.038-.022-18.075-.024-16.9-.051-33.8-.031-19.61-.062-39.218-.027-17.162-.053-34.325-.014-9.564-.023-19.127v-.8c0-2.574-4-2.578-4,0Z"/><path class="c" d="M227.944,18.124q0,9.764.012,19.528.015,19.1.029,38.192.018,22.584.035,45.169.015,20.179.03,40.358.009,12.045.015,24.091v1.3c0,2.573,4,2.578,4,0q0-10.667-.012-21.332-.013-19.56-.029-39.119-.017-22.611-.035-45.222l-.03-39.537q-.007-11.2-.014-22.4c0-.34,0-.681,0-1.021,0-2.574-4-2.578-4,0Z"/><path class="c" d="M214.383,18.124q0,9.764.012,19.528.013,19.1.029,38.192.016,22.584.035,45.169l.03,40.358q.007,12.045.014,24.091v1.3c0,2.573,4,2.578,4,0q0-10.667-.012-21.332-.014-19.56-.028-39.119-.018-22.611-.035-45.222-.015-19.769-.03-39.537-.009-11.2-.015-22.4V18.124c0-2.574-4-2.578-4,0Z"/><path class="b" d="M68.066,81.12c-.4.872-.722,1.78-1.016,2.614-.378,1.069-.733,2.145-1.046,3.24a4.741,4.741,0,0,0-.242,1.892c.158,1.211,3,4.1,2.118,3.059l57.128.005a7.481,7.481,0,0,0,2.082-3.064,4.723,4.723,0,0,0-.242-1.892c-.312-1.095-.667-2.171-1.045-3.24-.85-2.409-1.962-5.442-4.3-6.417-1.562-.653-3.307-.22-4.914.281a100.191,100.191,0,0,0-19.2,8.8,2.111,2.111,0,0,1-2.036.036c-6.208-3.253-12.324-6.726-19.1-8.837-1.607-.5-3.353-.934-4.914-.281A6.958,6.958,0,0,0,68.066,81.12Z"/><path class="c" d="M68.894,90.142c-.556-.647-1.248-1.282-1.085-2.171a27.881,27.881,0,0,1,1.4-4.346c.56-1.541,1.333-3.939,3.064-4.521a5.911,5.911,0,0,1,3.457.422c1.467.453,2.91.981,4.333,1.554,2.528,1.018,4.981,2.223,7.406,3.465,1.221.626,2.435,1.266,3.648,1.908a22.6,22.6,0,0,0,4.111,2.072A4.817,4.817,0,0,0,99,87.792q1.893-1.062,3.808-2.08c4.9-2.594,10.123-5.234,15.545-6.532a3.192,3.192,0,0,1,3.218.569,8.292,8.292,0,0,1,1.7,2.884c.521,1.285.961,2.614,1.369,3.938a4.812,4.812,0,0,1,.467,2c-.131.575-.884,1.236-1.243,1.64-1.7,1.918,1.114,4.757,2.829,2.828a8.675,8.675,0,0,0,2.324-3.646c.377-1.75-.42-3.65-.97-5.278-.855-2.537-1.756-5.433-3.769-7.317-2.492-2.334-5.646-1.955-8.66-.994a80.266,80.266,0,0,0-9.485,3.775c-3.049,1.422-6.022,3-8.957,4.643-.973.543-1.042.361-2.023-.158L93.134,83c-1.483-.785-2.967-1.566-4.464-2.323a88.533,88.533,0,0,0-9.259-4.115c-2.93-1.081-6.373-2.4-9.372-.833-2.765,1.449-3.946,4.714-4.918,7.474-.622,1.766-1.512,3.758-1.359,5.664.13,1.6,1.3,2.94,2.3,4.1,1.68,1.956,4.5-.884,2.828-2.828Z"/><path class="d" d="M155.189,93.013a1.059,1.059,0,0,0-1.04-1.08L38.7,91.917A1.054,1.054,0,0,0,37.663,93c-.008,4.309-.046,17.035-.058,20.837a1.051,1.051,0,0,0,1.033,1.083h3.653c.04,17.411.2,62.094.2,72.081,12.765,0,100.406.482,108.285.482,0-6.486.049-55.38.065-72.591h3.372a1.057,1.057,0,0,0,1.033-1.088C155.234,110.267,155.194,99.007,155.189,93.013Z"/><path class="b" d="M89.589,92.185c.017,14.893.1,77.492.111,94.984,4.5.036,9.118.075,13.567.112-.017-17.463-.1-80.164-.114-95.09C98.676,92.19,94.082,92.188,89.589,92.185Z"/><path class="c" d="M101.147,93.13q0,16.133.041,32.266.033,22.587.064,45.173.011,8.094.015,16.188c0,2.573,4,2.578,4,0q0-17.5-.04-35-.033-22.2-.065-44.41-.011-7.11-.015-14.221c0-2.574-4-2.578-4,0Z"/><path class="c" d="M87.585,93.13q0,16.133.041,32.266.033,22.587.065,45.173.01,8.094.015,16.188c0,2.573,4,2.578,4,0q0-17.5-.041-35-.032-22.2-.065-44.41-.009-7.11-.015-14.221c0-2.574-4-2.578-4,0Z"/><path class="c" d="M40.283,116.662c-.007,8.038.039,16.077.067,24.115q.06,16.922.117,33.844.018,6.188.026,12.376a2.029,2.029,0,0,0,2,2c4.95,0,9.9.027,14.848.048q12.589.053,25.178.116,14.185.067,28.37.139,12.4.06,24.8.12,7.18.033,14.362.058h.728a2.028,2.028,0,0,0,2-2q0-13.491.024-26.982.018-17.732.038-35.464,0-4.185.008-8.372c0-2.573-4-2.578-4,0q0,11.2-.023,22.39-.019,18.378-.038,36.757-.006,5.835-.009,11.671l2-2c-4.182,0-8.365-.028-12.548-.048q-11.994-.054-23.988-.115l-28.3-.139q-12.922-.063-25.844-.12-8.26-.036-16.521-.059H42.493l2,2c0-8.8-.042-17.609-.073-26.413q-.057-16.6-.114-33.2c-.011-3.573-.026-7.147-.023-10.72,0-2.574-4-2.578-4,0Z"/><path class="c" d="M103.17,116.9q21.6-.009,43.2-.014,2.877,0,5.754,0c1.868,0,4.158.185,4.914-2a9.932,9.932,0,0,0,.2-3.223q-.009-1.878-.015-3.756-.016-4.545-.027-9.091,0-2.124-.007-4.248c0-1.62.051-3.3-1.562-4.226a6.046,6.046,0,0,0-3.052-.4H146.3l-21.046,0-27.483,0-27.614-.005q-10.923,0-21.845,0l-6.879,0-2.1,0a3.31,3.31,0,0,0-3.671,3.432c-.139,5.093-.02,10.207-.035,15.3q0,1.7-.01,3.4a7.148,7.148,0,0,0,.3,3.1c.964,1.983,3.039,1.763,4.889,1.763q18.188,0,36.374-.006l12.431,0c2.574,0,2.578-4,0-4q-21.009.007-42.017.009h-7.9a3.636,3.636,0,0,0-.692,0c-.066.013-.221-.036-.278,0q.939,1.614.889.767v-.331c.191-1.981.011-4.068.017-6.06q.011-4.014.021-8.029,0-1.724.007-3.448,0-.725,0-1.448a4.318,4.318,0,0,0,0-1.371l-.916.92h.093c.043.016.106-.01.151,0a1.787,1.787,0,0,0,.343,0h.928l5.73,0,19.33,0q26.277.006,52.553.008l22.513,0h8.14c1.68,0,3.41.121,5.086,0a1.788,1.788,0,0,0,.373,0h.057q.636.016-.851-.653a2.829,2.829,0,0,0,0,.842q0,2.084.006,4.168.009,4.4.025,8.792.006,1.7.013,3.391a19.228,19.228,0,0,0,.013,3v.171q-.051.855.879-.759c-.056-.035-.213.014-.278,0a3.577,3.577,0,0,0-.694,0l-2.1,0q-18.078.013-36.157.012l-11.729,0c-2.574,0-2.578,4,0,4Z"/><path class="a" d="M318.629,173.677c0,5.994.045,27.254.058,30.786a1.058,1.058,0,0,1-1.033,1.089l-75.574.03a1.054,1.054,0,0,1-1.033-1.084c.012-3.8.051-26.528.058-30.837a1.054,1.054,0,0,1,1.034-1.08c8.379,0,65.173.014,75.45.015A1.06,1.06,0,0,1,318.629,173.677Z"/><path class="c" d="M243.068,199.364q.015-7.587.023-15.172l.009-6.62,0-2.4v-.88c0-1.187-.3.488-.813.288a8.282,8.282,0,0,0,2.369,0h3.454l9.515,0,49.015.01h9.691c.22,0,.451.022.669,0,.063-.006.141.012.2,0h.2q.711.031-.775-.776c-.2.267,0,1.593,0,1.918q0,1.352,0,2.7.018,12.135.047,24.27a5.917,5.917,0,0,0,0,1.475c.184.586,1.3-.481.739-.634a2.652,2.652,0,0,0-.617,0h-2.646l-8.347,0-23.666.01-24.446.01-9.6,0h-3.356a7.614,7.614,0,0,0-2.439,0c-.22.111-.722-.515.292.406.823.747.319.438.447.088a5.579,5.579,0,0,0,0-1.565q0-1.573,0-3.147c0-2.574-4-2.578-4,0q0,1.725,0,3.451a6.131,6.131,0,0,0,.467,3.334c.956,1.519,2.59,1.433,4.138,1.432l7.634,0,24.014-.009,26-.011c5.381,0,10.824.234,16.2-.006a3.166,3.166,0,0,0,3.06-2.213,7.668,7.668,0,0,0,.119-2.158q-.006-2.4-.011-4.792-.015-6.933-.027-13.866-.006-3.285-.011-6.57c0-1.579.328-3.628-.13-5.15-.909-3.021-5.48-2.207-7.952-2.207l-49.588-.01-19.223,0c-1.385,0-2.827-.117-3.851,1.025-1.158,1.293-.787,3.609-.789,5.235l-.021,15.338q-.006,3.592-.012,7.184c0,2.574,4,2.577,4,0Z"/><path class="c" d="M319.608,184.786c-7.4,7.4-14.7,14.893-22.1,22.293-1.822,1.823,1,4.653,2.828,2.829,7.4-7.4,14.7-14.893,22.1-22.293,1.823-1.823-1-4.652-2.828-2.829Z"/><path class="b" d="M139.35,128.207a23.847,23.847,0,0,0-1.527,3.631c-.378,1.07-.732,2.146-1.045,3.24a4.728,4.728,0,0,0-.242,1.893c.157,1.211,3,4.1,2.117,3.058l57.123.009a7.478,7.478,0,0,0,2.088-3.067,4.728,4.728,0,0,0-.242-1.893c-.313-1.094-.668-2.17-1.045-3.24-.851-2.409-1.963-5.442-4.3-6.417-1.562-.652-3.308-.219-4.915.282a100.276,100.276,0,0,0-19.2,8.8,2.108,2.108,0,0,1-2.036.037c-6.207-3.254-12.324-6.727-19.1-8.837-1.608-.5-3.353-.934-4.915-.282A6,6,0,0,0,139.35,128.207Z"/><path class="c" d="M139.668,138.246c-.556-.646-1.248-1.281-1.085-2.17a28.029,28.029,0,0,1,1.4-4.347c.56-1.541,1.334-3.938,3.065-4.52a5.9,5.9,0,0,1,3.457.422c1.466.452,2.91.981,4.333,1.554,2.528,1.018,4.981,2.222,7.405,3.465,1.221.625,2.435,1.266,3.648,1.908A22.625,22.625,0,0,0,166,136.629a4.816,4.816,0,0,0,3.773-.733q1.892-1.06,3.807-2.08c4.9-2.593,10.123-5.234,15.545-6.532a3.2,3.2,0,0,1,3.219.569,8.285,8.285,0,0,1,1.7,2.885c.521,1.285.961,2.614,1.369,3.938a4.8,4.8,0,0,1,.467,2.005c-.131.575-.883,1.236-1.242,1.639-1.706,1.919,1.114,4.757,2.828,2.829a8.671,8.671,0,0,0,2.324-3.646c.377-1.751-.42-3.65-.969-5.278-.856-2.537-1.757-5.433-3.77-7.318-2.491-2.333-5.646-1.955-8.66-.994a80.086,80.086,0,0,0-9.484,3.776c-3.049,1.421-6.022,3-8.958,4.642-.972.544-1.042.361-2.023-.157l-2.021-1.07c-1.482-.785-2.966-1.567-4.463-2.324a88.751,88.751,0,0,0-9.26-4.114c-2.93-1.081-6.372-2.4-9.372-.833-2.765,1.448-3.946,4.713-4.918,7.474-.621,1.765-1.512,3.758-1.358,5.664.129,1.6,1.3,2.94,2.3,4.1,1.681,1.956,4.5-.885,2.829-2.829Z"/><path class="d" d="M205.961,141.118a1.059,1.059,0,0,0-1.039-1.081c-10.277,0-67.072-.013-75.45-.015a1.053,1.053,0,0,0-1.034,1.079c-.008,4.31-.047,17.035-.058,20.837a1.053,1.053,0,0,0,1.033,1.084h3.659c.047,11.677.2,32.523.2,42.079,12.765,0,60.4.482,68.283.482,0-6.049.041-30.988.06-42.589h3.376a1.058,1.058,0,0,0,1.033-1.089C206.007,158.371,205.966,147.112,205.961,141.118Z"/><path class="b" d="M160.673,140.29c.017,14.893.1,47.489.111,64.982,4.5.036,9.118.074,13.567.112-.017-17.463-.1-50.162-.114-65.089C169.76,140.294,165.166,140.293,160.673,140.29Z"/><path class="c" d="M174.27,165.009q13.762-.01,27.526-.015c1.056,0,2.14.068,3.194,0,2.362-.164,3.033-2.045,3.027-4.093q-.017-5.3-.034-10.6-.009-2.953-.016-5.907c0-1.707.416-4.118-.9-5.445s-3.914-.9-5.649-.9l-14.381,0q-19.289,0-38.575-.008-7.3,0-14.6-.006c-1.384,0-2.779-.053-4.163,0-2.147.078-3.258,1.555-3.263,3.621l-.012,4.365-.033,10.894-.012,4.191c-.006,2.082.838,3.819,3.16,3.929,2.846.134,5.732,0,8.581,0q7.17,0,14.342,0l8.245,0c2.574,0,2.578-4,0-4q-13.263.009-26.524.009h-3.7a2.339,2.339,0,0,0-.658,0,2.25,2.25,0,0,0-.285,0c.013-.039.646.956.839.606a4.842,4.842,0,0,0,0-1.581q.014-4.821.029-9.642.008-2.488.014-4.979l.006-2.012a7.068,7.068,0,0,0,0-1.866c-.023-.068.039-.215,0-.274l-.894.748h.077c.092.035.237-.013.335,0a6.318,6.318,0,0,0,.837,0h2.019q6.378,0,12.757.006,17.952.006,35.9.008l15.441,0h5.461a15.632,15.632,0,0,0,1.96,0c.088-.012.327.05.4,0,.18-.125.977.935-.34-.46-.712-.754-.354-.5-.433-.056a15.057,15.057,0,0,0,0,2.539q.013,5.562.033,11.124l.015,4.695a10.66,10.66,0,0,0,0,1.686c.151.889.4-.728.77-.578a2.409,2.409,0,0,0-.7,0Q193.044,161.01,182,161l-7.727,0c-2.574,0-2.578,4,0,4Z"/><path class="c" d="M131.058,164.766c-.01,13.445.208,26.889.21,40.334a2.029,2.029,0,0,0,2,2c8.8,0,17.606.092,26.409.163q15.838.126,31.677.259c3.4.026,6.8.059,10.2.06a2.03,2.03,0,0,0,2-2q0-18.025.061-36.051,0-2.382.009-4.765c0-2.574-4-2.578-4,0,0,10.909-.045,21.819-.062,32.728q-.006,4.044-.008,8.088l2-2c-7.641,0-15.282-.1-22.923-.163q-16.323-.135-32.646-.259c-4.238-.029-8.476-.059-12.714-.06l2,2c0-13.445-.22-26.889-.21-40.334,0-2.574-4-2.578-4,0Z"/><path class="c" d="M172.231,141.234c0,17,.074,33.993.105,50.99q.012,6.318.016,12.635c0,2.574,4,2.578,4,0,0-17.656-.07-35.313-.106-52.969q-.011-5.328-.015-10.656c0-2.573-4-2.578-4,0Z"/><path class="c" d="M158.67,141.234c0,17,.074,33.993.105,50.99q.012,6.318.015,12.635c0,2.574,4,2.578,4,0,0-17.656-.069-35.313-.1-52.969q-.011-5.328-.015-10.656c0-2.573-4-2.578-4,0Z"/><path class="a" d="M26.459,157.162c-.922-5.058-2.083-9.086-3.286-14-.548-2.242-.224-4.3,1.988-5.132,1.374-.517,13.654,1.434,18.149-.6a7.548,7.548,0,0,1,6.22,0c4.494,2.036,9.663,3.494,13.967,1.089a5.01,5.01,0,0,1,4.182-.487c2.211.833,2.535,2.89,1.987,5.132-1.154,4.717-5.752,16.481-6.7,21.425,4.166,14,8.489,25.25,7.75,36.916-.124,1.946.047,3.624-1.513,4.794-5.165,3.873-38.487,3.956-45.891.857-1.8-.753-1.5-2.789-1.641-4.734-.622-8.75,2.461-22.333,7.128-32.167l-.987-6.079Z"/><path class="c" d="M28.388,156.631c-.885-4.785-2.3-9.429-3.326-14.178a3.387,3.387,0,0,1-.04-1.789,1.28,1.28,0,0,1,.511-.6c.906-.658.229-.131.22-.121.1-.114-.438.019-.178.019.968,0,1.927.019,2.895.076,3.111.184,6.228.426,9.347.319a22.922,22.922,0,0,0,4.692-.553c1.83-.451,3.3-1.378,5.274-.872,2.2.563,4.2,1.752,6.423,2.29a16.308,16.308,0,0,0,6.754.31,12.211,12.211,0,0,0,3.175-1.088,3.737,3.737,0,0,1,2.634-.6c1.55.41,1.157,2.1.843,3.282-1.695,6.405-4.376,12.515-6.095,18.916-.162.6-.323,1.209-.439,1.821-.248,1.315.362,2.607.743,3.856.734,2.409,1.487,4.813,2.224,7.221,1.371,4.481,2.7,8.987,3.635,13.583A50.636,50.636,0,0,1,68.729,201.3c-.065,1.2.136,2.859-.92,3.518-.132.082-.275.143-.411.216-.417.222.354-.121-.122.055-.4.15-.809.287-1.222.406-4.835,1.392-9.9,1.561-15.016,1.746a147.44,147.44,0,0,1-18.408-.4,43.92,43.92,0,0,1-6.564-.948,7.2,7.2,0,0,1-2.039-.621c-.33-.345-.275-1.043-.3-1.491-.04-.868-.094-1.738-.121-2.607-.258-8.2,1.812-16.607,4.58-24.268.694-1.92,1.467-3.8,2.337-5.652,1.09-2.316-2.357-4.349-3.454-2.019a81.345,81.345,0,0,0-5.522,15.98,63.634,63.634,0,0,0-1.955,15.32c.028,2.151-.209,5.036,1.035,6.893a6.208,6.208,0,0,0,3.887,2.2,54.242,54.242,0,0,0,9.256,1.305,146.193,146.193,0,0,0,23.236-.045,56.492,56.492,0,0,0,9.617-1.41,13.47,13.47,0,0,0,3.053-1.132c2.053-1.124,2.812-3.13,2.962-5.361.911-13.511-3.947-26.209-7.747-38.943v1.063c1.151-5.827,3.548-11.442,5.393-17.071.832-2.536,2.1-5.526,1.424-8.22a5.335,5.335,0,0,0-3.5-3.725,7.4,7.4,0,0,0-5.908.786c-3.534,1.8-7.76.539-11.181-.929A10.944,10.944,0,0,0,44.83,134.9c-1.625.259-2.47.876-3.974,1.168-4.973.966-10.046-.358-15.041-.126a4.971,4.971,0,0,0-3.631,1.793,6.523,6.523,0,0,0-1.019,5.6c.958,4.82,2.47,9.512,3.366,14.354.467,2.528,4.323,1.457,3.857-1.063Z"/><path class="b" d="M48.233,165.286c-.885-.672-1.689-1.274-2.39-1.79-7.8,5.738-28.164,22.038-34.527,28.112-3.12-3.034-6.2-6.442-9.322-9.468,7.949-6.661,22.118-15.458,28.578-18.284-3.67-.514-5.2-.068-7.69-1.331a3.492,3.492,0,0,1-1.385-1.413,3.78,3.78,0,0,1-.4-1.526,19.125,19.125,0,0,1,1.97-8.64c1.287-2.693,2.938-3.752,5.634-3.066a19.484,19.484,0,0,1,4.4,1.985,47.512,47.512,0,0,1,7.857,5.784l.991.757a1.887,1.887,0,0,1,1.1-.905,10.466,10.466,0,0,1,5.339,0,2.441,2.441,0,0,1,.82.539l.671-.622a44.743,44.743,0,0,1,7.613-5.553,19.139,19.139,0,0,1,4.345-1.985c2.664-.686,4.3.373,5.568,3.066a19.33,19.33,0,0,1,1.947,8.64,3.824,3.824,0,0,1-.4,1.526,3.468,3.468,0,0,1-1.369,1.413c-2.256,1.157-3.713.88-6.73,1.22,6.332,2.695,20.781,11.643,28.839,18.395-3.12,3.026-6.2,6.434-9.322,9.468C74.578,186.081,57.191,172.085,48.233,165.286Z"/><path class="c" d="M51.289,156.832a39.477,39.477,0,0,1,8.693-6.059,7.887,7.887,0,0,1,3.506-1.1,1.878,1.878,0,0,1,.839.319,4.228,4.228,0,0,1,1.088,1.448,17.623,17.623,0,0,1,1.7,5.05c.21,1.116.719,3.273-.281,4.132-.913.785-2.424.846-3.554.924-1.3.091-2.58.161-3.882.129a41.948,41.948,0,0,1-8.907-.962c-2.5-.609-3.567,3.247-1.064,3.858a47.419,47.419,0,0,0,10.095,1.107,40.011,40.011,0,0,0,4.6-.2,9.112,9.112,0,0,0,5.536-2.03c1.756-1.685,1.828-4.06,1.56-6.326a22.966,22.966,0,0,0-1.942-6.856,7.954,7.954,0,0,0-3.315-3.947,6.7,6.7,0,0,0-5.159-.223,27.732,27.732,0,0,0-6.424,3.345A45.519,45.519,0,0,0,48.461,154c-1.9,1.745.934,4.568,2.828,2.828Z"/><path class="c" d="M42.369,154.235a41.738,41.738,0,0,0-10.795-7.4,9.292,9.292,0,0,0-5.634-1.017,6.356,6.356,0,0,0-3.9,2.876,18.232,18.232,0,0,0-2.386,5.892c-.477,2.014-.969,4.605-.268,6.616,1.421,4.073,6.268,4.4,9.949,4.474a58.274,58.274,0,0,0,11.823-1.257,2.019,2.019,0,0,0,1.4-2.46,2.043,2.043,0,0,0-2.46-1.4,65.9,65.9,0,0,1-8.491,1.058,31.761,31.761,0,0,1-3.951-.043,7.952,7.952,0,0,1-3.872-.839c-1.09-.731-.713-2.519-.558-3.617a17.724,17.724,0,0,1,1.488-4.989,8.221,8.221,0,0,1,.931-1.621,4.729,4.729,0,0,1,.47-.48,3.425,3.425,0,0,1,.363-.217,1.965,1.965,0,0,1,1.15-.118,7.781,7.781,0,0,1,2.083.661,37.794,37.794,0,0,1,9.831,6.711c1.9,1.728,4.739-1.093,2.829-2.829Z"/><path class="c" d="M42.513,153.572a4,4,0,0,0-2.316,1.862,5.892,5.892,0,0,0-.56,2.245,28.839,28.839,0,0,0-.082,3.955c.008.266.012.533.035.8a3.119,3.119,0,0,0,.869,1.972,2.876,2.876,0,0,0,2.035.809c.576.011,1.154,0,1.731,0,1.517,0,3.035.013,4.552,0a3.2,3.2,0,0,0,1.6-.4,3.362,3.362,0,0,0,1.517-2.931A26.193,26.193,0,0,0,51.8,157.8a4.912,4.912,0,0,0-.953-2.929,4.317,4.317,0,0,0-2.307-1.394,12.417,12.417,0,0,0-6.027.095,2,2,0,0,0,1.063,3.857c.308-.086.617-.148.93-.209.056-.011.3-.039.011,0-.3.036.009,0,.084-.007.189-.019.378-.032.568-.041.333-.016.666-.016,1,0,.165.007.33.018.494.032l.209.021c.181.02.356.139-.052-.009a6.67,6.67,0,0,0,.91.187c.089.018.293.108-.048-.042s-.157-.077-.095-.036.11.068.163.1c.225.123-.108-.072-.147-.125a2.237,2.237,0,0,0,.282.256c.062.057.221.255,0-.013-.192-.237-.092-.123-.057-.054-.015-.03-.152-.533-.128-.252a1.374,1.374,0,0,0,.029.142c.026.135.043.271.069.406.048.249-.055-.463-.027-.2.006.057.013.114.02.17.015.138.028.276.04.413q.039.465.06.932.042.911.027,1.824c0,.251-.01.5-.02.752-.005.123-.014.247-.019.37,0,.078-.008.32.008,0s-.11.121.034-.171c.027-.057.347-.48.194-.328s.212-.167.192-.155a1.172,1.172,0,0,1,.6-.17.9.9,0,0,0-.1,0c-1.244-.063-2.508,0-3.754,0H43.036c-.176,0-.356-.01-.532,0h-.082a2.435,2.435,0,0,1,.621.17,1.293,1.293,0,0,1,.426.441c-.139-.227.056.13.072.186,0,.015.031.5.035.219,0-.063-.005-.126-.007-.188-.005-.136-.01-.272-.014-.407-.008-.3-.015-.606-.019-.909-.008-.675-.005-1.35.026-2.024.014-.306.034-.611.064-.915.006-.053.012-.106.017-.159.033-.343-.07.42-.025.182.022-.12.039-.24.065-.359.022-.1.15-.446,0-.086s.052-.015.091-.109c.064-.152-.139.2-.159.207s.368-.3.032-.064c-.279.2-.065.037-.023.023.4-.126-.466.146-.046.008a2,2,0,1,0-1.063-3.857Z"/><path class="c" d="M29.583,162.118a106.448,106.448,0,0,0-13.893,7.8,143.759,143.759,0,0,0-15.111,10.8,2.017,2.017,0,0,0,0,2.828c3.174,3.092,6.154,6.373,9.323,9.468a2.037,2.037,0,0,0,2.829,0c3.777-3.593,7.84-6.9,11.862-10.214q7.6-6.26,15.365-12.322c2.165-1.691,4.34-3.37,6.546-5.007a2.06,2.06,0,0,0,.718-2.736,2.015,2.015,0,0,0-2.736-.718c-9.818,7.281-19.364,15-28.668,22.926-2,1.707-4.007,3.427-5.916,5.243h2.829c-3.169-3.1-6.15-6.377-9.323-9.468v2.828a136.564,136.564,0,0,1,14.618-10.379,105.417,105.417,0,0,1,13.576-7.6,2.014,2.014,0,0,0,.718-2.737,2.05,2.05,0,0,0-2.737-.717Z"/><path class="c" d="M60.083,165.572a105.219,105.219,0,0,1,13.575,7.6,136.718,136.718,0,0,1,14.619,10.379v-2.828c-3.173,3.091-6.154,6.372-9.323,9.468h2.829c-3.857-3.67-8.009-7.044-12.118-10.424q-7.652-6.294-15.464-12.389c-2.317-1.807-4.642-3.6-7-5.356a2.015,2.015,0,0,0-2.736.718,2.046,2.046,0,0,0,.717,2.736c9.582,7.106,18.889,14.656,27.966,22.392,1.969,1.678,3.934,3.368,5.808,5.151a2.037,2.037,0,0,0,2.829,0c3.168-3.095,6.149-6.376,9.322-9.468a2.011,2.011,0,0,0,0-2.828A143.5,143.5,0,0,0,76,169.922a106.576,106.576,0,0,0-13.894-7.8,2.063,2.063,0,0,0-2.736.717,2.015,2.015,0,0,0,.718,2.737Z"/></svg>