<svg version="1.1" xmlns="http://www.w3.org/2000/svg" viewBox="0 0 1783 754.3741975534708" width="1783" height="754.3741975534708">
  <!-- svg-source:excalidraw -->
  
  <defs>
    <style class="style-fonts">
      @font-face {
        font-family: "Virgil";
        src: url("https://excalidraw.com/Virgil.woff2");
      }
      @font-face {
        font-family: "Cascadia";
        src: url("https://excalidraw.com/Cascadia.woff2");
      }
    </style>
  </defs>
  <g transform="translate(10 448) rotate(0 146.5 17.5)"><text x="0" y="25" font-family="Virgil, Segoe UI Emoji" font-size="28px" fill="#000000" text-anchor="start" style="white-space: pre;" direction="ltr">"ror clusters -o json"</text></g><g stroke-linecap="round"><g transform="translate(402 467) rotate(0 86.19244803283178 0.8011352563833043)"><path d="M-1.11 0.49 C27.24 0.49, 142.26 0.31, 171.26 0.43 M0.51 -0.3 C29.13 -0.14, 144.82 1.99, 173.49 1.9" stroke="#000000" stroke-width="1" fill="none"></path></g><g transform="translate(402 467) rotate(0 86.19244803283178 0.8011352563833043)"><path d="M146.03 10.37 C156.18 9.41, 168.64 2.98, 174.19 2.32 M146.2 10.99 C153.15 8.81, 162.15 6.17, 173.24 1.67" stroke="#000000" stroke-width="1" fill="none"></path></g><g transform="translate(402 467) rotate(0 86.19244803283178 0.8011352563833043)"><path d="M146.22 -10.15 C156.36 -2.97, 168.75 -1.26, 174.19 2.32 M146.38 -9.53 C153.44 -5.82, 162.38 -2.57, 173.24 1.67" stroke="#000000" stroke-width="1" fill="none"></path></g></g><mask></mask><g stroke-linecap="round" transform="translate(933.7231389004886 360) rotate(0 116.00000000000006 106)"><path d="M19.9 88.85 C19.9 88.85, 19.9 88.85, 19.9 88.85 M19.9 88.85 C19.9 88.85, 19.9 88.85, 19.9 88.85 M9.8 106.57 C21.37 95.65, 32.91 85.97, 43.91 67.32 M9.8 106.57 C22.21 92.41, 33.92 79.29, 43.91 67.32 M9.53 112.96 C30.78 89.32, 55.42 67.92, 67.92 45.8 M9.53 112.96 C23.79 96.09, 38.86 76.4, 67.92 45.8 M11.9 116.34 C37.01 85.93, 54.87 60.98, 91.94 24.27 M11.9 116.34 C35.23 89.62, 57.29 65.83, 91.94 24.27 M14.92 118.97 C40.32 90.96, 58.69 65.56, 109.39 10.29 M14.92 118.97 C45.87 82.81, 80.18 44.31, 109.39 10.29 M17.28 122.35 C58.08 82.88, 89.59 34.96, 117.66 6.88 M17.28 122.35 C41.27 95.31, 66.91 69.99, 117.66 6.88 M20.3 124.97 C42.84 96.06, 63.49 70.07, 121.99 7.99 M20.3 124.97 C56.66 85.23, 89.85 50.11, 121.99 7.99 M23.32 127.6 C44.99 100.59, 66.43 73.61, 125.01 10.62 M23.32 127.6 C63.29 86.1, 99.01 43.91, 125.01 10.62 M26.34 130.22 C51.79 100.72, 80.94 63.01, 128.68 12.48 M26.34 130.22 C49.45 103.74, 73.99 76.03, 128.68 12.48 M29.35 132.84 C56.01 95.65, 85.14 60.53, 131.7 15.11 M29.35 132.84 C53.7 103.37, 78.99 77.94, 131.7 15.11 M31.72 136.22 C69.79 96.04, 99.68 58.23, 134.72 17.73 M31.72 136.22 C65.7 96.49, 100.87 56.85, 134.72 17.73 M34.74 138.85 C75.71 94.63, 111.74 43.58, 137.74 20.36 M34.74 138.85 C60.16 110.12, 82.33 85.27, 137.74 20.36 M37.76 141.47 C65.94 106.85, 94.37 76.53, 140.76 22.98 M37.76 141.47 C73.01 101.41, 111.43 61.78, 140.76 22.98 M40.77 144.1 C68.14 109.58, 104.23 76.07, 143.78 25.61 M40.77 144.1 C81.44 103.06, 117.39 60.82, 143.78 25.61 M43.79 146.72 C67.87 122.14, 92.81 89.42, 147.45 27.48 M43.79 146.72 C83.07 99.51, 122.94 56.26, 147.45 27.48 M46.81 149.34 C63.78 120.8, 86.25 102.49, 150.47 30.1 M46.81 149.34 C75.33 117.08, 101.27 85.74, 150.47 30.1 M49.83 151.97 C75.43 121.9, 91.65 103.29, 152.83 33.48 M49.83 151.97 C74.75 125, 96.03 100.72, 152.83 33.48 M52.85 154.59 C82.88 123.54, 107.91 94.09, 155.85 36.1 M52.85 154.59 C78.17 125.48, 101.09 98.57, 155.85 36.1 M55.87 157.22 C83.99 127.26, 113.37 95.62, 158.87 38.73 M55.87 157.22 C95.27 112.76, 134.24 64.7, 158.87 38.73 M58.89 159.84 C98.22 118.16, 133.48 76.91, 161.89 41.35 M58.89 159.84 C90.41 121.06, 119.12 88.82, 161.89 41.35 M61.91 162.46 C78.25 134.15, 106.03 109.99, 164.91 43.98 M61.91 162.46 C91.42 121.61, 126.55 86.14, 164.91 43.98 M64.92 165.09 C105.39 120.01, 146.94 71.61, 167.93 46.6 M64.92 165.09 C87.5 137.73, 109.33 112.37, 167.93 46.6 M67.94 167.71 C85.22 141.8, 106.66 116.85, 170.29 49.98 M67.94 167.71 C91.13 141.03, 116.22 111.71, 170.29 49.98 M70.96 170.34 C99.21 143.05, 128.89 108.45, 173.31 52.6 M70.96 170.34 C103.84 135.48, 136.97 97.16, 173.31 52.6 M73.98 172.96 C98.28 146.98, 119.81 126.43, 176.33 55.23 M73.98 172.96 C111.17 128.69, 150.29 84.96, 176.33 55.23 M77 175.59 C110.96 131.95, 156.01 87.74, 179.35 57.85 M77 175.59 C111.34 133.54, 150.14 89.83, 179.35 57.85 M80.02 178.21 C119.32 137.77, 160.17 96.02, 182.36 60.48 M80.02 178.21 C103.4 154.44, 126.93 125.47, 182.36 60.48 M83.04 180.83 C123.36 137.14, 163.22 97.65, 185.38 63.1 M83.04 180.83 C113.31 141.45, 147.05 105.24, 185.38 63.1 M86.06 183.46 C129.17 135.88, 161.7 90.78, 187.75 66.48 M86.06 183.46 C114.52 147.2, 144.15 115.21, 187.75 66.48 M89.08 186.08 C110.49 160.19, 139.27 133.23, 190.76 69.1 M89.08 186.08 C111.05 161.6, 134.41 136.21, 190.76 69.1 M92.09 188.71 C122.86 149.69, 159.73 117.44, 193.78 71.73 M92.09 188.71 C120.62 158.81, 150.55 125.66, 193.78 71.73 M95.11 191.33 C131.76 149.58, 165 115.79, 196.8 74.35 M95.11 191.33 C125.98 153.3, 158.46 117.49, 196.8 74.35 M98.13 193.96 C125.79 166.77, 152.61 141.82, 199.82 76.98 M98.13 193.96 C133.41 151.4, 169.24 109.29, 199.82 76.98 M101.15 196.58 C122.33 174.63, 144.39 144.87, 202.84 79.6 M101.15 196.58 C122.55 168.1, 149.43 140.07, 202.84 79.6 M104.17 199.2 C148.2 149.7, 181.31 108.28, 205.2 82.98 M104.17 199.2 C134.51 163.36, 163.06 130.73, 205.2 82.98 M107.19 201.83 C128.71 177.33, 147.69 157.85, 208.22 85.6 M107.19 201.83 C139.53 164.29, 167.41 128.54, 208.22 85.6 M110.86 203.7 C143.15 160.45, 182.58 125.07, 211.24 88.23 M110.86 203.7 C140.57 169.95, 165.48 141.32, 211.24 88.23 M114.54 205.57 C155.31 164.28, 187.97 119.32, 214.26 90.85 M114.54 205.57 C132.35 181.47, 155.07 159.62, 214.26 90.85 M120.84 204.42 C156.33 168.4, 186.9 134.2, 217.28 93.48 M120.84 204.42 C156.28 166.47, 186.71 126.65, 217.28 93.48 M124.51 206.29 C144.4 181.89, 161.33 153.92, 219.64 96.85 M124.51 206.29 C152.44 175.76, 181.18 143.11, 219.64 96.85 M138.68 196.08 C159.24 170.37, 183.85 147.2, 222 100.23 M138.68 196.08 C169.29 162.86, 197.45 128.2, 222 100.23 M164.66 172.29 C184.75 146.98, 208.59 118.49, 225.02 102.86 M164.66 172.29 C182.24 149.37, 203.84 126.45, 225.02 102.86 M189.99 149.26 C202.19 137.78, 210.4 124.38, 224.76 109.26 M189.99 149.26 C202.08 132.95, 217.37 119.07, 224.76 109.26" stroke="#40c057" stroke-width="0.5" fill="none"></path><path d="M146.25 26.75 M146.25 26.75 C162.41 40.95, 171.28 54.86, 202.75 80.25 M146.25 26.75 C163.83 44.43, 177.72 57.15, 202.75 80.25 M202.75 80.25 C233.45 109.54, 231.05 110.82, 202.75 133.75 M202.75 80.25 C233.39 103.6, 231.74 107.44, 202.75 133.75 M202.75 133.75 C178.01 151.68, 163.06 168.67, 146.25 185.25 M202.75 133.75 C181.8 152.38, 163.24 171.44, 146.25 185.25 M146.25 185.25 C116.06 209.22, 120.33 208.05, 87.75 185.25 M146.25 185.25 C113.18 213.86, 114.48 214.65, 87.75 185.25 M87.75 185.25 C68.94 168.02, 51.45 154.5, 29.25 133.75 M87.75 185.25 C72.88 171.9, 61.34 162.23, 29.25 133.75 M29.25 133.75 C-0.4 107.17, 1.13 108.72, 29.25 80.25 M29.25 133.75 C1.41 105.72, -0.72 102.65, 29.25 80.25 M29.25 80.25 C42.22 63.27, 59.76 47.87, 87.75 26.75 M29.25 80.25 C45.09 64.58, 56.86 51.98, 87.75 26.75 M87.75 26.75 C118.2 -0.16, 115.9 -2.01, 146.25 26.75 M87.75 26.75 C121.12 -3.8, 114.16 -1.52, 146.25 26.75" stroke="#000000" stroke-width="1" fill="none"></path></g><g transform="translate(943.2231389004887 431) rotate(0 106.5 35)"><text x="106.5" y="25" font-family="Virgil, Segoe UI Emoji" font-size="28px" fill="#000000" text-anchor="middle" style="white-space: pre;" direction="ltr">hasIRefreshtok</text><text x="106.5" y="60" font-family="Virgil, Segoe UI Emoji" font-size="28px" fill="#000000" text-anchor="middle" style="white-space: pre;" direction="ltr">en?</text></g><g transform="translate(451 425) rotate(0 33 17.5)"><text x="0" y="25" font-family="Virgil, Segoe UI Emoji" font-size="28px" fill="#000000" text-anchor="start" style="white-space: pre;" direction="ltr">Auth</text></g><g mask="url(#mask-nhlpzjEx-ul9ryz4jCUVR)" stroke-linecap="round"><g transform="translate(1051.4606623254847 348.8075180497631) rotate(0 -1.2006751144824648 -104.86831837341026)"><path d="M0.57 -0.84 C0.06 -36.02, -2.38 -176.07, -2.97 -211.07 M-0.59 1.33 C-0.71 -33.75, -0.02 -174.91, -0.61 -210.12" stroke="#000000" stroke-width="1" fill="none"></path></g><g transform="translate(1051.4606623254847 348.8075180497631) rotate(0 -1.2006751144824648 -104.86831837341026)"><path d="M8.37 -183.09 C4.71 -191.72, 1.98 -197.39, -2.06 -211.23 M10.14 -181.47 C8.13 -188.42, 5.51 -194.81, -0.2 -209.86" stroke="#000000" stroke-width="1" fill="none"></path></g><g transform="translate(1051.4606623254847 348.8075180497631) rotate(0 -1.2006751144824648 -104.86831837341026)"><path d="M-12.15 -183 C-9.51 -191.75, -5.94 -197.45, -2.06 -211.23 M-10.38 -181.38 C-8.07 -188.38, -6.36 -194.79, -0.2 -209.86" stroke="#000000" stroke-width="1" fill="none"></path></g></g><mask id="mask-nhlpzjEx-ul9ryz4jCUVR"><rect x="0" y="0" fill="#fff" width="1153.764422666026" height="658.7546521090362"></rect><rect x="1026.8087821552137" y="226.3339510201265" fill="#000" width="47" height="35" opacity="1"></rect></mask><g transform="translate(1026.808782155214 226.3339510201265) rotate(0 23.45120505578825 17.60524865622631)"><text x="23.5" y="25" font-family="Virgil, Segoe UI Emoji" font-size="28px" fill="#000000" text-anchor="middle" style="white-space: pre;" direction="ltr">Yes</text></g><g stroke-linecap="round" transform="translate(578 356) rotate(0 110.5 109)"><path d="M18.59 91.69 C18.59 91.69, 18.59 91.69, 18.59 91.69 M18.59 91.69 C18.59 91.69, 18.59 91.69, 18.59 91.69 M9.15 108.65 C18.07 97.11, 29.39 87.36, 53.1 58.09 M9.15 108.65 C22.78 94.25, 36.6 80.16, 53.1 58.09 M8.23 115.81 C36.98 83.41, 64.11 52.89, 86.96 25.24 M8.23 115.81 C37.7 83.41, 67.76 52.3, 86.96 25.24 M11.25 118.43 C33.58 91.82, 57.76 59.29, 104.41 11.26 M11.25 118.43 C39.25 84.86, 63.3 55, 104.41 11.26 M13.61 121.81 C42.23 88.5, 69.69 60.1, 112.68 7.85 M13.61 121.81 C38.3 93.22, 59.57 66.61, 112.68 7.85 M15.97 125.19 C47.23 87.02, 85.08 45.44, 117.01 8.96 M15.97 125.19 C55.93 84.74, 90.48 39.15, 117.01 8.96 M18.34 128.57 C42.12 99.4, 70.57 75, 120.03 11.59 M18.34 128.57 C39.71 101.18, 61.24 75.3, 120.03 11.59 M21.36 131.19 C59.45 90.26, 92.67 58.16, 123.05 14.21 M21.36 131.19 C42.44 103.81, 64.5 77.28, 123.05 14.21 M24.37 133.81 C66.04 93.19, 100.62 51.22, 126.06 16.83 M24.37 133.81 C50.45 103.07, 78.95 68.2, 126.06 16.83 M27.39 136.44 C48.83 110.21, 74.22 82.05, 129.08 19.46 M27.39 136.44 C54.71 100.51, 83.81 66.23, 129.08 19.46 M30.41 139.06 C55.05 108.24, 81.67 84.93, 132.1 22.08 M30.41 139.06 C66.17 100.02, 97.65 62.09, 132.1 22.08 M33.43 141.69 C67.12 103.83, 102.21 65.08, 135.12 24.71 M33.43 141.69 C72.84 96.74, 110.04 49.14, 135.12 24.71 M35.79 145.07 C62.41 114.79, 83.08 92.3, 138.14 27.33 M35.79 145.07 C64.08 111.86, 92.95 79.85, 138.14 27.33 M38.81 147.69 C71.89 108.01, 112.47 70.45, 141.16 29.96 M38.81 147.69 C66.92 113.53, 100.23 79.22, 141.16 29.96 M41.83 150.32 C83.74 109.58, 118.08 68.32, 144.18 32.58 M41.83 150.32 C65.9 124.21, 90.1 94.36, 144.18 32.58 M44.85 152.94 C82.73 104.73, 121.42 65.44, 147.2 35.2 M44.85 152.94 C63.14 126.29, 84.96 104.97, 147.2 35.2 M47.87 155.56 C77.42 123.91, 100.43 94.46, 149.56 38.58 M47.87 155.56 C71.83 127.58, 90.86 105.72, 149.56 38.58 M50.23 158.94 C76.67 130.89, 97.26 107.61, 152.58 41.21 M50.23 158.94 C79.21 127.72, 104.61 98.16, 152.58 41.21 M53.25 161.57 C80.01 131.57, 102.65 104.42, 155.6 43.83 M53.25 161.57 C80.53 130.81, 109.21 98.89, 155.6 43.83 M56.27 164.19 C94.76 120.41, 132.17 70.9, 157.96 47.21 M56.27 164.19 C94.42 122.47, 129.67 81.58, 157.96 47.21 M59.29 166.82 C91.67 126.6, 117.67 98.25, 160.98 49.84 M59.29 166.82 C77.19 140.06, 101.66 115.8, 160.98 49.84 M62.31 169.44 C89.69 127.09, 126.52 94.59, 164 52.46 M62.31 169.44 C101.62 123.54, 142.23 76.53, 164 52.46 M64.67 172.82 C86.73 144.87, 107.7 120.25, 167.02 55.08 M64.67 172.82 C83.06 147.25, 104.3 122.68, 167.02 55.08 M67.69 175.44 C89.25 149.39, 115.4 118.42, 169.38 58.46 M67.69 175.44 C95.78 147.58, 123.46 115.5, 169.38 58.46 M70.71 178.07 C102.74 144.06, 136.58 104.71, 172.4 61.09 M70.71 178.07 C94.57 152.96, 116.19 130.19, 172.4 61.09 M73.73 180.69 C111.46 136.68, 150.77 93.97, 175.42 63.71 M73.73 180.69 C109 137.37, 150.3 93.66, 175.42 63.71 M76.75 183.32 C109.2 142.83, 150.38 97.32, 177.78 67.09 M76.75 183.32 C115.16 142.64, 154.03 100.55, 177.78 67.09 M79.11 186.69 C103.19 164.63, 126.68 133.8, 180.8 69.71 M79.11 186.69 C118.86 143.38, 157.27 102.38, 180.8 69.71 M82.13 189.32 C111.07 149.83, 145.89 115, 183.82 72.34 M82.13 189.32 C123.53 143.01, 158.94 98.44, 183.82 72.34 M85.15 191.94 C111.55 154.61, 141.41 124.43, 186.18 75.72 M85.15 191.94 C108.06 165.31, 133.99 138.55, 186.18 75.72 M88.17 194.57 C111.37 170.55, 135.1 146.2, 189.2 78.34 M88.17 194.57 C119.47 156.5, 153.74 122.17, 189.2 78.34 M91.18 197.19 C119.02 168.91, 150.4 135.37, 192.22 80.97 M91.18 197.19 C125.84 156.79, 159.15 120.69, 192.22 80.97 M93.55 200.57 C123.1 161.78, 156.37 126.61, 195.24 83.59 M93.55 200.57 C120.68 173.33, 146.42 146.67, 195.24 83.59 M96.57 203.19 C130.91 161.15, 166.53 118.39, 197.6 86.97 M96.57 203.19 C117.23 180.18, 139.15 152.77, 197.6 86.97 M100.24 205.06 C120.28 178.16, 149.19 150.68, 200.62 89.59 M100.24 205.06 C142.47 157.71, 178.41 114.7, 200.62 89.59 M103.26 207.69 C132.8 170.21, 160.98 138.23, 203.64 92.22 M103.26 207.69 C124.22 184.6, 143.77 163.29, 203.64 92.22 M106.93 209.56 C140.42 172.18, 165.14 136.37, 206 95.6 M106.93 209.56 C139.98 168.65, 177.29 130.72, 206 95.6 M109.95 212.18 C140.28 177.74, 161.92 152.9, 208.36 98.98 M109.95 212.18 C149.56 169.67, 184.32 125.99, 208.36 98.98 M116.91 210.28 C131.77 187.33, 155.6 168.47, 210.72 102.35 M116.91 210.28 C150.21 174.99, 180.86 140.21, 210.72 102.35 M130.42 200.83 C162.75 170.09, 185.22 134.62, 213.74 104.98 M130.42 200.83 C147.61 179.2, 163.92 156.19, 213.74 104.98 M165.59 166.47 C178.32 151.39, 194.81 133.22, 214.14 110.62 M165.59 166.47 C177.8 151.48, 192.01 137.71, 214.14 110.62" stroke="#40c057" stroke-width="0.5" fill="none"></path><path d="M138.75 27.5 M138.75 27.5 C159.94 48.24, 175.88 67.77, 193.25 82.5 M138.75 27.5 C158.03 47.84, 178.83 66.31, 193.25 82.5 M193.25 82.5 C221.71 109.28, 223.81 106.28, 193.25 137.5 M193.25 82.5 C220.98 111.31, 219.01 110.31, 193.25 137.5 M193.25 137.5 C181.15 150.18, 166.01 168.27, 138.75 190.5 M193.25 137.5 C175.58 152.65, 161.46 165.49, 138.75 190.5 M138.75 190.5 C110.84 216.41, 114.02 219.27, 83.25 190.5 M138.75 190.5 C109.52 221.1, 110.01 220.23, 83.25 190.5 M83.25 190.5 C68.92 179.14, 58.77 170.04, 27.75 137.5 M83.25 190.5 C65.43 176.08, 51.76 163.08, 27.75 137.5 M27.75 137.5 C-1.43 107.8, -3.1 109.16, 27.75 82.5 M27.75 137.5 C3.71 106.27, 2.27 106.14, 27.75 82.5 M27.75 82.5 C46.41 68.86, 60.63 46.06, 83.25 27.5 M27.75 82.5 C50.91 61.25, 72.52 41.18, 83.25 27.5 M83.25 27.5 C114.01 -3.77, 110.23 -0.93, 138.75 27.5 M83.25 27.5 C109.86 0.86, 107.49 0.14, 138.75 27.5" stroke="#000000" stroke-width="1" fill="none"></path></g><g transform="translate(600 430) rotate(0 88.5 35)"><text x="88.5" y="25" font-family="Virgil, Segoe UI Emoji" font-size="28px" fill="#000000" text-anchor="middle" style="white-space: pre;" direction="ltr">Verify token/</text><text x="88.5" y="60" font-family="Virgil, Segoe UI Emoji" font-size="28px" fill="#000000" text-anchor="middle" style="white-space: pre;" direction="ltr">expired?</text></g><g stroke-linecap="round"><g transform="translate(806.6175770415108 466.474917392841) rotate(0 51.255202690099395 0.12760679070868264)"><path d="M-0.35 -0.88 C16.8 -0.91, 85.56 -0.93, 102.86 -1.06 M1.67 1.28 C18.65 1.49, 84.98 0.61, 101.85 0.25" stroke="#000000" stroke-width="1" fill="none"></path></g><g transform="translate(806.6175770415108 466.474917392841) rotate(0 51.255202690099395 0.12760679070868264)"><path d="M72.37 10.79 C81.58 8.61, 88.97 4.22, 102.96 0.52 M73.79 10.5 C81.87 8.46, 88.48 5.83, 101.03 0.45" stroke="#000000" stroke-width="1" fill="none"></path></g><g transform="translate(806.6175770415108 466.474917392841) rotate(0 51.255202690099395 0.12760679070868264)"><path d="M72.04 -9.73 C81.2 -5.76, 88.69 -3.99, 102.96 0.52 M73.46 -10.01 C81.66 -6.37, 88.37 -3.31, 101.03 0.45" stroke="#000000" stroke-width="1" fill="none"></path></g></g><mask></mask><g transform="translate(835.1001099621592 448.6662664522303) rotate(0 23 17.5)"><text x="23" y="25" font-family="Virgil, Segoe UI Emoji" font-size="28px" fill="#000000" text-anchor="middle" style="white-space: pre;" direction="ltr">yes</text></g><g mask="url(#mask-8EcoK__HuDD0s97w-Lemy)" stroke-linecap="round"><g transform="translate(688.2227990040035 585.2208594447434) rotate(0 1.3749335640370077 79.93744064140776)"><path d="M-1.08 1.16 C-0.69 27.82, 0.96 132.72, 1.69 159.15 M0.56 0.72 C1.36 27.07, 3.46 131.02, 3.83 157.23" stroke="#000000" stroke-width="1" fill="none"></path></g><g transform="translate(688.2227990040035 585.2208594447434) rotate(0 1.3749335640370077 79.93744064140776)"><path d="M-5 127.41 C-3.85 137.01, -0.18 144.92, 4.72 158.97 M-7.31 129.76 C-4.36 136.7, -0.87 144.09, 4.42 156.24" stroke="#000000" stroke-width="1" fill="none"></path></g><g transform="translate(688.2227990040035 585.2208594447434) rotate(0 1.3749335640370077 79.93744064140776)"><path d="M15.52 127.04 C11.63 136.55, 10.26 144.55, 4.72 158.97 M13.21 129.4 C10.71 136.53, 8.76 144.02, 4.42 156.24" stroke="#000000" stroke-width="1" fill="none"></path></g></g><mask id="mask-8EcoK__HuDD0s97w-Lemy"><rect x="0" y="0" fill="#fff" width="791" height="844"></rect><rect x="652.1113995020016" y="629.6104297223717" fill="#000" width="75" height="70" opacity="1"></rect></mask><g transform="translate(652.1113995020017 629.6104297223717) rotate(0 37.48633306603875 35.54787036377945)"><text x="37.5" y="25" font-family="Virgil, Segoe UI Emoji" font-size="28px" fill="#000000" text-anchor="middle" style="white-space: pre;" direction="ltr">No /</text><text x="37.5" y="60" font-family="Virgil, Segoe UI Emoji" font-size="28px" fill="#000000" text-anchor="middle" style="white-space: pre;" direction="ltr">token</text></g><g stroke-linecap="round" transform="translate(966 10) rotate(0 70 56.5)"><path d="M6.86 7.29 C6.86 7.29, 6.86 7.29, 6.86 7.29 M6.86 7.29 C6.86 7.29, 6.86 7.29, 6.86 7.29 M1.35 19.73 C3.01 14.97, 12.62 13.23, 16.44 2.37 M1.35 19.73 C6.36 15.38, 7.92 8.66, 16.44 2.37 M3.06 23.86 C12.46 13.85, 12.55 11.22, 22.74 1.22 M3.06 23.86 C8.66 15.44, 15.28 8.5, 22.74 1.22 M2.8 30.26 C4.52 27.87, 13.33 20.09, 29.04 0.07 M2.8 30.26 C9.1 22.67, 14.86 18.92, 29.04 0.07 M3.19 35.9 C6.91 30.53, 20.7 19.44, 34.03 0.43 M3.19 35.9 C14.28 23.42, 22.8 15.01, 34.03 0.43 M2.93 42.3 C14.11 29.63, 27.38 11.82, 39.02 0.79 M2.93 42.3 C15.11 26.34, 29.44 10.27, 39.02 0.79 M3.33 47.94 C15.65 35.6, 31.12 17.58, 44.66 0.4 M3.33 47.94 C12.69 36.76, 24.85 25.51, 44.66 0.4 M3.07 54.34 C13.63 41.54, 22.57 33.93, 49.65 0.76 M3.07 54.34 C16.37 40.81, 29.1 25.8, 49.65 0.76 M2.8 60.74 C25.08 38.56, 44.13 17.59, 55.29 0.36 M2.8 60.74 C20.97 38.93, 41.61 18.63, 55.29 0.36 M3.2 66.38 C14.94 53.6, 23.87 37.43, 60.28 0.72 M3.2 66.38 C18.47 49.25, 29.94 32.57, 60.28 0.72 M2.94 72.78 C21.91 52.19, 38.65 25.3, 65.92 0.33 M2.94 72.78 C21.45 49.44, 36.83 31.24, 65.92 0.33 M3.33 78.42 C20.92 53.42, 45.31 30.39, 70.91 0.69 M3.33 78.42 C31.69 48.5, 55.57 16.65, 70.91 0.69 M3.07 84.82 C17.02 67.43, 37.72 42.92, 76.55 0.29 M3.07 84.82 C19.8 65.98, 36.26 47.69, 76.55 0.29 M1.5 92.73 C23.01 63.24, 51.87 39.14, 81.54 0.65 M1.5 92.73 C18.37 70.49, 37.72 53.76, 81.54 0.65 M3.86 96.11 C20.58 70.21, 45.48 53.02, 86.52 1.01 M3.86 96.11 C28.37 64.64, 57.76 36.51, 86.52 1.01 M5.57 100.24 C24.49 79.58, 45.63 53.69, 92.17 0.62 M5.57 100.24 C36.5 64.21, 63.66 28.72, 92.17 0.62 M7.27 104.37 C38.27 71.53, 66.13 44.34, 97.15 0.98 M7.27 104.37 C36.65 70.24, 67.4 36.8, 97.15 0.98 M9.64 107.75 C26.3 87.32, 50.64 58.78, 102.8 0.58 M9.64 107.75 C30.96 84.42, 53.65 55.64, 102.8 0.58 M13.31 109.62 C35.64 89.95, 52.95 66.86, 107.78 0.94 M13.31 109.62 C45.62 68.3, 82.98 27.89, 107.78 0.94 M16.99 111.49 C39.68 85.18, 70.76 51.3, 113.43 0.55 M16.99 111.49 C43.95 80.14, 72.24 47.95, 113.43 0.55 M20.66 113.36 C50.71 74.52, 81.93 42, 118.41 0.91 M20.66 113.36 C51.99 75.75, 83.24 38.18, 118.41 0.91 M24.34 115.23 C53.21 75.42, 87.75 41.43, 122.74 2.02 M24.34 115.23 C51.83 85.59, 76.05 54.54, 122.74 2.02 M29.98 114.84 C60.28 82.7, 85.82 44.81, 126.42 3.89 M29.98 114.84 C57.6 82.19, 86.97 47.49, 126.42 3.89 M34.97 115.2 C69.56 76.98, 97.04 40.52, 130.09 5.76 M34.97 115.2 C63.69 77.32, 95.71 40.35, 130.09 5.76 M40.61 114.8 C77.36 71.01, 110.67 35.03, 133.77 7.63 M40.61 114.8 C66.76 82.56, 95.52 48.95, 133.77 7.63 M45.6 115.16 C74.07 82.62, 98.57 59.02, 136.13 11.01 M45.6 115.16 C67.98 91.19, 90.98 65.63, 136.13 11.01 M50.58 115.52 C69.71 89.42, 94.59 64.85, 137.84 15.14 M50.58 115.52 C78.21 81.94, 108.44 46.68, 137.84 15.14 M56.23 115.13 C81.69 83.11, 109.13 51.23, 140.86 17.77 M56.23 115.13 C76.55 87.4, 98.15 61.79, 140.86 17.77 M61.21 115.49 C91.17 81.92, 120.84 50.07, 141.25 23.41 M61.21 115.49 C79.71 91.3, 99.9 67.83, 141.25 23.41 M66.86 115.09 C84.59 89.34, 104.33 71.19, 141.65 29.06 M66.86 115.09 C89.14 87.59, 112.31 61.01, 141.65 29.06 M71.84 115.45 C90.76 93.8, 113.81 66.79, 141.38 35.45 M71.84 115.45 C95.48 88.99, 123.21 57.27, 141.38 35.45 M77.49 115.06 C102.99 84.94, 123.52 64.57, 141.12 41.85 M77.49 115.06 C91.49 97.98, 105.92 84.12, 141.12 41.85 M82.47 115.42 C91.33 101.62, 104.65 88.89, 141.52 47.49 M82.47 115.42 C96.68 98.75, 112.6 84.53, 141.52 47.49 M88.12 115.02 C105.48 101.53, 113.63 80.02, 141.26 53.89 M88.12 115.02 C98.45 100.82, 110.67 90, 141.26 53.89 M93.1 115.38 C108.33 98.8, 119.1 90.05, 140.99 60.29 M93.1 115.38 C111 93.99, 132.01 69.96, 140.99 60.29 M98.09 115.74 C111.72 100.14, 120.95 89.18, 141.39 65.93 M98.09 115.74 C112.52 99.19, 125.98 85.2, 141.39 65.93 M103.73 115.35 C115.91 101.19, 135.93 82.08, 141.13 72.33 M103.73 115.35 C116.08 101, 127.33 87.67, 141.13 72.33 M108.72 115.71 C117.85 103.25, 127.53 89.63, 140.87 78.73 M108.72 115.71 C119.87 104.14, 126.89 93.54, 140.87 78.73 M114.36 115.31 C125.43 106.81, 128.67 94.96, 141.26 84.37 M114.36 115.31 C122.29 106.73, 130.94 96.49, 141.26 84.37 M120.66 114.16 C126.7 105.84, 134.86 101.97, 140.34 91.52 M120.66 114.16 C128.91 106.32, 132.55 97.91, 140.34 91.52" stroke="#4c6ef5" stroke-width="0.5" fill="none"></path><path d="M28.25 0 M28.25 0 C44.1 0.05, 63.69 3.24, 111.75 0 M28.25 0 C55.51 -0.16, 82.19 0.21, 111.75 0 M111.75 0 C134.52 -1.01, 139.59 10.87, 140 28.25 M111.75 0 C133.5 -1.09, 144.39 10.8, 140 28.25 M140 28.25 C143 39.6, 137.73 50.71, 140 84.75 M140 28.25 C141.9 42.33, 140.97 59.42, 140 84.75 M140 84.75 C141.21 105.23, 133.94 112.06, 111.75 113 M140 84.75 C136.81 107.41, 126.04 109.18, 111.75 113 M111.75 113 C83.12 116.98, 51.11 113.2, 28.25 113 M111.75 113 C87.11 113.37, 63.63 111.56, 28.25 113 M28.25 113 C7.97 112.6, 2.25 103.19, 0 84.75 M28.25 113 C9.61 114.3, 1.97 104.99, 0 84.75 M0 84.75 C-0.32 70.2, 4.14 50.37, 0 28.25 M0 84.75 C-0.28 67.2, 2.73 52.96, 0 28.25 M0 28.25 C-2.92 6.04, 7.49 1.2, 28.25 0 M0 28.25 C-0.18 8.15, 7.11 4.12, 28.25 0" stroke="#000000" stroke-width="1" fill="none"></path></g><g transform="translate(1008.5 49) rotate(0 27.5 17.5)"><text x="27.5" y="25" font-family="Virgil, Segoe UI Emoji" font-size="28px" fill="#000000" text-anchor="middle" style="white-space: pre;" direction="ltr">Dex</text></g><g mask="url(#mask-LY4Y2ykMKU7QFy7xQRE43)" stroke-linecap="round"><g transform="translate(1172.1303734506032 460.32872972301607) rotate(0 46.06041727204877 -1.0391520310017768)"><path d="M-0.56 0.74 C14.7 0.22, 77.28 -2.31, 92.68 -2.82 M1.35 0.08 C16.42 -0.26, 77.19 -0.48, 92.14 -1.22" stroke="#000000" stroke-width="1" fill="none"></path></g><g transform="translate(1172.1303734506032 460.32872972301607) rotate(0 46.06041727204877 -1.0391520310017768)"><path d="M65.43 11.01 C75.43 5.42, 87.31 -0.14, 92.65 0.69 M64.37 9.38 C74.67 5.98, 86.35 0.63, 92.23 -2.11" stroke="#000000" stroke-width="1" fill="none"></path></g><g transform="translate(1172.1303734506032 460.32872972301607) rotate(0 46.06041727204877 -1.0391520310017768)"><path d="M64.95 -9.51 C75.19 -6.96, 87.27 -4.4, 92.65 0.69 M63.89 -11.14 C74.44 -6.67, 86.3 -4.15, 92.23 -2.11" stroke="#000000" stroke-width="1" fill="none"></path></g></g><mask id="mask-LY4Y2ykMKU7QFy7xQRE43"><rect x="0" y="0" fill="#fff" width="1364.019249881835" height="563.2570999245686"></rect><rect x="1200.0748116662194" y="441.3645446222399" fill="#000" width="36" height="35" opacity="1"></rect></mask><g transform="translate(1200.0748116662191 441.3645446222399) rotate(0 18.11597905643282 17.925033069774372)"><text x="18" y="25" font-family="Virgil, Segoe UI Emoji" font-size="28px" fill="#000000" text-anchor="middle" style="white-space: pre;" direction="ltr">No</text></g><g stroke-linecap="round"><g transform="translate(1077.6422144341846 139.9999999999959) rotate(0 3.1764252150635457 103.68978194627908)"><path d="M0.65 -0.35 C1.61 34.36, 5.86 174.18, 6.82 208.95 M-0.46 -1.58 C0.2 32.74, 4.12 172.11, 5.68 207.33" stroke="#000000" stroke-width="1" fill="none"></path></g><g transform="translate(1077.6422144341846 139.9999999999959) rotate(0 3.1764252150635457 103.68978194627908)"><path d="M-6.14 178.92 C0.61 189.03, 3.92 201.69, 6.81 206.02 M-5.98 179.07 C-2.8 185.22, -0.1 193.07, 5.82 206.58" stroke="#000000" stroke-width="1" fill="none"></path></g><g transform="translate(1077.6422144341846 139.9999999999959) rotate(0 3.1764252150635457 103.68978194627908)"><path d="M14.37 178.2 C13.08 188.71, 8.36 201.64, 6.81 206.02 M14.53 178.36 C12.9 184.54, 10.79 192.56, 5.82 206.58" stroke="#000000" stroke-width="1" fill="none"></path></g></g><mask></mask><g mask="url(#mask-V9Gd56rEHuHUxbFlot9a8)" stroke-linecap="round"><g transform="translate(1060.067529990427 592.6649546575691) rotate(0 -0.6985044125353852 71.53277101366996)"><path d="M0.37 -0.48 C-0.02 23.57, -0.8 119.55, -1.25 143.66 M-0.9 -1.77 C-1.47 22.48, -1.38 120.31, -1.77 144.84" stroke="#000000" stroke-width="1" fill="none"></path></g><g transform="translate(1060.067529990427 592.6649546575691) rotate(0 -0.6985044125353852 71.53277101366996)"><path d="M-12.64 117.95 C-9.17 127.24, -4.39 137.49, -1.43 146.02 M-12.58 116.5 C-9.18 125.49, -5.14 135.52, -2.69 145.58" stroke="#000000" stroke-width="1" fill="none"></path></g><g transform="translate(1060.067529990427 592.6649546575691) rotate(0 -0.6985044125353852 71.53277101366996)"><path d="M7.88 118.08 C3.31 127.39, 0.05 137.58, -1.43 146.02 M7.94 116.63 C4.83 125.4, 2.36 135.4, -2.69 145.58" stroke="#000000" stroke-width="1" fill="none"></path></g></g><mask id="mask-V9Gd56rEHuHUxbFlot9a8"><rect x="0" y="0" fill="#fff" width="1162.1350599808538" height="837"></rect><rect x="1018.0337649952135" y="647.3324773287845" fill="#000" width="82" height="35" opacity="1"></rect></mask><g transform="translate(1018.0337649952135 647.3324773287845) rotate(0 41.335260582678075 16.865248342454493)"><text x="41" y="25" font-family="Virgil, Segoe UI Emoji" font-size="28px" fill="#000000" text-anchor="middle" style="white-space: pre;" direction="ltr">Token</text></g><g stroke-linecap="round" transform="translate(1278 422) rotate(0 58 36)"><path d="M6.36 33.35 C6.36 33.35, 6.36 33.35, 6.36 33.35 M6.36 33.35 C6.36 33.35, 6.36 33.35, 6.36 33.35 M6.1 39.75 C12.32 36.87, 10.9 27.23, 17.91 26.16 M6.1 39.75 C9.43 37.03, 11.14 32.46, 17.91 26.16 M9.12 42.37 C17.91 33.73, 18.59 31.57, 29.45 18.98 M9.12 42.37 C12 36.39, 18.51 32.7, 29.45 18.98 M12.79 44.24 C21.73 32.12, 29.37 24.83, 41.66 11.04 M12.79 44.24 C22.14 33.53, 29.43 26.77, 41.66 11.04 M16.46 46.11 C29.59 31.7, 45.62 10.39, 53.2 3.85 M16.46 46.11 C23.72 39.29, 29.7 27.63, 53.2 3.85 M19.48 48.74 C29.33 30.56, 44.71 14.5, 58.85 3.45 M19.48 48.74 C30.56 33.97, 43.76 23.22, 58.85 3.45 M23.16 50.61 C34.97 35.01, 50.05 18.29, 63.18 4.57 M23.16 50.61 C41.01 30.56, 56.52 15.94, 63.18 4.57 M26.83 52.48 C39.71 39.82, 50.64 22.04, 66.85 6.44 M26.83 52.48 C42.92 34.06, 58.22 16.78, 66.85 6.44 M30.51 54.35 C37.9 39.69, 48.85 29.46, 70.53 8.31 M30.51 54.35 C38.9 43.99, 49.36 35.12, 70.53 8.31 M33.53 56.97 C41.19 42.6, 54.83 34.34, 74.2 10.18 M33.53 56.97 C47.76 41.7, 60.14 25.89, 74.2 10.18 M37.2 58.84 C53.48 41.97, 71.16 24.06, 77.88 12.05 M37.2 58.84 C50.79 45.93, 61.98 31.46, 77.88 12.05 M40.88 60.71 C51.31 41.81, 67.57 28.34, 80.9 14.67 M40.88 60.71 C56.82 43.58, 71.81 25.05, 80.9 14.67 M43.9 63.33 C57.47 52.34, 65.68 34.58, 84.57 16.54 M43.9 63.33 C54.01 53.67, 61.74 42.9, 84.57 16.54 M47.57 65.2 C59.54 55.37, 64.84 37.55, 87.59 19.17 M47.57 65.2 C63.3 46.54, 77.04 31.28, 87.59 19.17 M51.25 67.07 C60.33 57.77, 73.4 39.35, 90.61 21.79 M51.25 67.07 C63.81 54.3, 73.39 44.96, 90.61 21.79 M54.26 69.7 C67.33 58.94, 74.94 49.21, 94.28 23.66 M54.26 69.7 C70.61 51.03, 84.02 36.1, 94.28 23.66 M59.25 70.06 C77.68 51.13, 85.6 39.7, 97.3 26.28 M59.25 70.06 C73.98 51.93, 87.15 37.78, 97.3 26.28 M65.55 68.91 C78.7 51.99, 88.1 44.31, 100.32 28.91 M65.55 68.91 C77.68 52.74, 93.66 37.46, 100.32 28.91 M77.1 61.72 C88.74 54.61, 95.07 37.92, 104 30.78 M77.1 61.72 C82.66 54.48, 90.62 46.02, 104 30.78 M87.99 55.29 C95.76 47.95, 101.84 42.9, 107.02 33.4 M87.99 55.29 C96.83 45.79, 103.65 40.49, 107.02 33.4 M98.88 48.86 C99.98 46.73, 106.21 44.83, 110.03 36.03 M98.88 48.86 C101.94 47.7, 104.99 44.27, 110.03 36.03" stroke="#40c057" stroke-width="0.5" fill="none"></path><path d="M73.75 9.25 M73.75 9.25 C84.45 11.86, 91.62 22.54, 101.25 27.75 M73.75 9.25 C81.16 12.86, 90.38 20.98, 101.25 27.75 M101.25 27.75 C113.77 36.32, 114.17 35.56, 101.25 46.25 M101.25 27.75 C112.94 35.49, 115.27 33.62, 101.25 46.25 M101.25 46.25 C90.49 47.35, 81.26 56.49, 73.75 62.75 M101.25 46.25 C92.54 50.29, 81.41 56.35, 73.75 62.75 M73.75 62.75 C60.25 72.57, 57.72 68.6, 44.25 62.75 M73.75 62.75 C55.62 70.32, 59.66 70.36, 44.25 62.75 M44.25 62.75 C38.85 57.75, 27.65 53.15, 14.75 46.25 M44.25 62.75 C34.32 57.02, 21.28 51.22, 14.75 46.25 M14.75 46.25 C3.91 36.48, 2.06 37.37, 14.75 27.75 M14.75 46.25 C3.76 33.73, 2.32 40.25, 14.75 27.75 M14.75 27.75 C18.33 24.37, 29.84 23.03, 44.25 9.25 M14.75 27.75 C24.73 21.28, 39.2 14.28, 44.25 9.25 M44.25 9.25 C58.04 2.63, 55.19 0.81, 73.75 9.25 M44.25 9.25 C59.73 -0.25, 62.52 3.88, 73.75 9.25" stroke="#000000" stroke-width="1" fill="none"></path></g><g transform="translate(1292 440.5) rotate(0 44 17.5)"><text x="44" y="25" font-family="Virgil, Segoe UI Emoji" font-size="28px" fill="#000000" text-anchor="middle" style="white-space: pre;" direction="ltr">silent?</text></g><g mask="url(#mask-aMfff_DeaX-PRChsCp_D8)" stroke-linecap="round"><g transform="translate(1408.7943515101651 462.73745557587836) rotate(0 74.03584553295104 -0.5535195045148384)"><path d="M0.03 1.09 C25.1 0.85, 124.79 -0.24, 149.49 -0.64 M-1.41 0.61 C23.67 0, 124.3 -1.52, 149.08 -2.19" stroke="#000000" stroke-width="1" fill="none"></path></g><g transform="translate(1408.7943515101651 462.73745557587836) rotate(0 74.03584553295104 -0.5535195045148384)"><path d="M122.92 10.37 C129.05 5.81, 134.14 4.74, 147.21 -0.93 M121.18 7.87 C131 3.89, 140.54 0.98, 149.41 -1.82" stroke="#000000" stroke-width="1" fill="none"></path></g><g transform="translate(1408.7943515101651 462.73745557587836) rotate(0 74.03584553295104 -0.5535195045148384)"><path d="M122.5 -10.14 C128.86 -10.14, 134.05 -6.65, 147.21 -0.93 M120.76 -12.65 C130.87 -9.25, 140.56 -4.78, 149.41 -1.82" stroke="#000000" stroke-width="1" fill="none"></path></g></g><mask id="mask-aMfff_DeaX-PRChsCp_D8"><rect x="0" y="0" fill="#fff" width="1657.2402907572668" height="564.447212171729"></rect><rect x="1467.517321133716" y="444.38257727795303" fill="#000" width="31" height="35" opacity="1"></rect></mask><g transform="translate(1467.517321133716 444.38257727795303) rotate(0 15.31287590940019 17.801358793410486)"><text x="15.5" y="25" font-family="Virgil, Segoe UI Emoji" font-size="28px" fill="#000000" text-anchor="middle" style="white-space: pre;" direction="ltr">no</text></g><g mask="url(#mask-u3CtbHe4GqUbwV63VT8bQ)" stroke-linecap="round"><g transform="translate(1333.7854583747144 511.35273073898975) rotate(0 -1.0018430041823194 115.69711067015601)"><path d="M-0.2 0.89 C-0.17 39.22, -0.38 192.87, -0.29 231.08 M-1.76 0.32 C-1.9 38.78, -1.74 190.71, -1.51 229.18" stroke="#000000" stroke-width="1" fill="none"></path></g><g transform="translate(1333.7854583747144 511.35273073898975) rotate(0 -1.0018430041823194 115.69711067015601)"><path d="M-10.36 200.18 C-8.15 208.65, -7.03 215.39, -0.04 230.25 M-11.56 200.34 C-8.4 210.41, -4.31 220.67, -2.13 229.93" stroke="#000000" stroke-width="1" fill="none"></path></g><g transform="translate(1333.7854583747144 511.35273073898975) rotate(0 -1.0018430041823194 115.69711067015601)"><path d="M10.16 200.11 C6.98 208.57, 2.69 215.32, -0.04 230.25 M8.96 200.28 C5.05 210.54, 2.07 220.83, -2.13 229.93" stroke="#000000" stroke-width="1" fill="none"></path></g></g><mask id="mask-u3CtbHe4GqUbwV63VT8bQ"><rect x="0" y="0" fill="#fff" width="1434" height="842"></rect><rect x="1232.8927291873574" y="609.1763653694948" fill="#000" width="202" height="35" opacity="1"></rect></mask><g transform="translate(1232.8927291873572 609.1763653694948) rotate(0 99.89088618317487 17.873476039650996)"><text x="101" y="25" font-family="Virgil, Segoe UI Emoji" font-size="28px" fill="#000000" text-anchor="middle" style="white-space: pre;" direction="ltr">Errorcode 404</text></g><g stroke-linecap="round" transform="translate(1571 398) rotate(0 101 71)"><path d="M7.86 8.16 C7.86 8.16, 7.86 8.16, 7.86 8.16 M7.86 8.16 C7.86 8.16, 7.86 8.16, 7.86 8.16 M2.35 20.59 C4.42 13.64, 11.8 6.41, 18.1 2.48 M2.35 20.59 C7.11 15.11, 11.67 11.67, 18.1 2.48 M2.75 26.24 C13.61 14.85, 21.03 6.04, 24.4 1.33 M2.75 26.24 C8.98 22.28, 10.13 14.82, 24.4 1.33 M2.48 32.64 C13.19 24.01, 16.85 15.88, 30.7 0.18 M2.48 32.64 C14.21 22.9, 22.16 9.59, 30.7 0.18 M2.88 38.28 C7.95 24.73, 20.19 17.66, 34.37 2.05 M2.88 38.28 C10.2 28.73, 22.31 14.87, 34.37 2.05 M2.62 44.68 C7.98 35.4, 14.66 31.74, 39.36 2.41 M2.62 44.68 C13.42 33.58, 21.88 21.12, 39.36 2.41 M2.36 51.07 C12.26 44.35, 18.39 33.69, 45 2.02 M2.36 51.07 C21.45 31.66, 36.88 11.83, 45 2.02 M2.75 56.72 C15.97 44.57, 31.8 26.17, 49.99 2.38 M2.75 56.72 C19.71 36.19, 37.96 17.4, 49.99 2.38 M2.49 63.11 C15.12 45.83, 29.13 33.08, 55.63 1.98 M2.49 63.11 C18.35 45.09, 30.6 28.26, 55.63 1.98 M2.88 68.76 C17.42 55.29, 25.78 43.86, 60.62 2.34 M2.88 68.76 C20.87 49.51, 38.9 26.17, 60.62 2.34 M2.62 75.16 C23.12 53.04, 42.79 31.91, 66.26 1.95 M2.62 75.16 C27.57 47.61, 51.99 17.61, 66.26 1.95 M2.36 81.55 C18.76 66.94, 30.72 46.62, 71.25 2.31 M2.36 81.55 C22.95 55.11, 45.89 28.86, 71.25 2.31 M2.76 87.2 C24.33 55.47, 51.84 31.69, 76.89 1.91 M2.76 87.2 C30.88 51.39, 61.43 20.16, 76.89 1.91 M2.49 93.59 C25.01 66.39, 56.06 32.2, 81.88 2.27 M2.49 93.59 C31.15 62.9, 59.17 32.54, 81.88 2.27 M2.89 99.24 C21.94 71.07, 43.4 43.63, 87.52 1.88 M2.89 99.24 C38.06 58.58, 69.07 21, 87.52 1.88 M2.63 105.64 C37.37 67.63, 72.84 22.77, 92.51 2.24 M2.63 105.64 C37.74 69.82, 67.86 29.18, 92.51 2.24 M2.37 112.03 C42.99 73.3, 76.91 28.98, 98.15 1.85 M2.37 112.03 C31.88 83.84, 57.33 52.49, 98.15 1.85 M2.1 118.43 C40.61 83.43, 69.16 44.42, 103.14 2.21 M2.1 118.43 C24.92 91.48, 49.4 65.71, 103.14 2.21 M3.81 122.56 C38.16 76.36, 80.52 29.04, 108.78 1.81 M3.81 122.56 C25.18 100.24, 45.92 75.2, 108.78 1.81 M5.52 126.7 C44.42 86.39, 74.91 39.66, 113.77 2.17 M5.52 126.7 C49.38 76.35, 88.11 32.44, 113.77 2.17 M7.22 130.83 C37.5 92.27, 60.84 63.1, 119.41 1.78 M7.22 130.83 C42.31 88.09, 79.1 46.58, 119.41 1.78 M8.93 134.97 C50.74 90.49, 86.29 44.93, 124.4 2.14 M8.93 134.97 C46.02 93.75, 78.23 55.34, 124.4 2.14 M12.61 136.83 C44.77 99, 77.33 65.75, 130.04 1.74 M12.61 136.83 C39.92 107.83, 68.93 78.41, 130.04 1.74 M16.28 138.7 C39.11 108.5, 69.73 80.08, 135.03 2.1 M16.28 138.7 C49.69 104.14, 81.52 67.32, 135.03 2.1 M19.3 141.33 C63.12 87.12, 109.99 34.57, 140.67 1.71 M19.3 141.33 C57.85 91.9, 98.75 48.53, 140.67 1.71 M24.29 141.69 C60.94 98.57, 94.51 64.18, 145.66 2.07 M24.29 141.69 C49.2 110.09, 79.89 78.93, 145.66 2.07 M28.62 142.8 C74.23 89.7, 127.36 36.04, 150.65 2.43 M28.62 142.8 C60.85 106.71, 94.01 69.18, 150.65 2.43 M33.61 143.16 C83.58 85.57, 126.71 33.91, 156.29 2.03 M33.61 143.16 C74.04 98.48, 113.4 47.74, 156.29 2.03 M38.59 143.52 C67.38 111.29, 87.92 82.45, 161.28 2.39 M38.59 143.52 C80.02 98.81, 118.78 57.05, 161.28 2.39 M44.24 143.13 C85.71 94.91, 131.5 47.34, 166.92 2 M44.24 143.13 C88.53 91.9, 131.18 43.63, 166.92 2 M49.22 143.49 C94.37 89.25, 146.57 38.52, 172.56 1.6 M49.22 143.49 C90.97 96.15, 131.26 47.5, 172.56 1.6 M54.87 143.09 C101.7 88.57, 144.13 37.75, 176.89 2.72 M54.87 143.09 C91.27 104.39, 128.25 64.21, 176.89 2.72 M59.85 143.45 C108.92 87.73, 153.62 33.27, 181.88 3.08 M59.85 143.45 C93.67 104.76, 128.34 67.4, 181.88 3.08 M65.5 143.06 C100.39 103.83, 130.31 73.56, 186.21 4.19 M65.5 143.06 C108.18 95.08, 150.29 40.74, 186.21 4.19 M70.48 143.42 C108.78 103.08, 139.21 61.3, 189.89 6.06 M70.48 143.42 C99.07 112.73, 126.58 80.6, 189.89 6.06 M76.13 143.03 C119.42 101.33, 153.81 50.87, 193.56 7.93 M76.13 143.03 C100.16 108.61, 127.91 78.49, 193.56 7.93 M81.11 143.39 C125 98.32, 163.1 44.55, 196.58 10.56 M81.11 143.39 C125.64 93.6, 171.34 38.94, 196.58 10.56 M86.76 142.99 C129.87 92.71, 168.52 51.43, 198.94 13.94 M86.76 142.99 C126.16 97.3, 168.49 48.93, 198.94 13.94 M91.74 143.35 C135.08 97.23, 179.73 41.23, 200.65 18.07 M91.74 143.35 C132.25 99.05, 168.87 54.06, 200.65 18.07 M97.39 142.96 C118.61 116.28, 143.52 92.74, 201.04 23.71 M97.39 142.96 C124.81 110.29, 153.17 79.39, 201.04 23.71 M102.37 143.32 C136.23 100.66, 177.58 52.98, 202.09 28.6 M102.37 143.32 C129.23 108.15, 159.53 75.14, 202.09 28.6 M108.02 142.92 C129.78 117.3, 146.29 99.9, 203.14 33.49 M108.02 142.92 C133.56 116.24, 157.33 86.91, 203.14 33.49 M113 143.28 C136.18 109.55, 163.02 82.2, 203.54 39.13 M113 143.28 C139.61 114.95, 167.04 82.87, 203.54 39.13 M117.99 143.64 C146.84 109.43, 185.03 69.7, 203.28 45.53 M117.99 143.64 C141.52 116.04, 167.31 84.22, 203.28 45.53 M123.63 143.25 C145.4 112.95, 167.1 87.43, 203.02 51.93 M123.63 143.25 C153.66 107.76, 185.2 73.54, 203.02 51.93 M128.62 143.61 C149.92 117.92, 174.27 81.92, 203.41 57.57 M128.62 143.61 C154.94 114.95, 178.62 83.77, 203.41 57.57 M134.26 143.21 C150.67 121.14, 169.01 95.57, 203.15 63.97 M134.26 143.21 C152.41 121.61, 171.35 101.47, 203.15 63.97 M139.25 143.57 C156.92 119.06, 182.57 99.32, 202.89 70.37 M139.25 143.57 C152.51 128.06, 164.84 115.74, 202.89 70.37 M144.89 143.18 C164 122.3, 185.82 96.94, 203.28 76.01 M144.89 143.18 C157.04 126.7, 171.61 112.21, 203.28 76.01 M149.88 143.54 C163.95 122.92, 188.46 101.71, 203.02 82.41 M149.88 143.54 C166.98 121.04, 183.8 104.43, 203.02 82.41 M155.52 143.14 C172.67 119.77, 187.11 105.92, 202.76 88.81 M155.52 143.14 C171.1 128.62, 183.39 114.42, 202.76 88.81 M160.51 143.5 C171.5 133.44, 181.95 119.84, 203.15 94.45 M160.51 143.5 C175.62 127.24, 190.2 113.16, 203.15 94.45 M166.15 143.11 C184.36 124.21, 191.65 113.57, 202.89 100.85 M166.15 143.11 C176.32 131.78, 190.36 118.96, 202.89 100.85 M171.14 143.47 C182.76 131.32, 187.23 120.53, 202.63 107.24 M171.14 143.47 C179.78 132.58, 191.2 121.2, 202.63 107.24 M177.44 142.32 C182.94 133.48, 185.82 132.01, 203.03 112.89 M177.44 142.32 C185.94 134.25, 193.18 124.57, 203.03 112.89 M184.39 140.42 C186.08 135.53, 195.31 128.85, 203.42 118.53 M184.39 140.42 C191.16 130.82, 197.6 126.81, 203.42 118.53" stroke="#fa5252" stroke-width="0.5" fill="none"></path><path d="M32 0 M32 0 C64.91 -5.75, 99.76 -1.54, 170 0 M32 0 C79.04 1.77, 127.49 1.86, 170 0 M170 0 C193.98 1.25, 198.55 10.41, 202 32 M170 0 C189.35 -1.34, 200.64 14.78, 202 32 M202 32 C198.05 56.32, 201.63 83.29, 202 110 M202 32 C204.98 62.47, 203.3 91.32, 202 110 M202 110 C205.39 135.22, 195.21 143.3, 170 142 M202 110 C200.98 133.35, 194.65 142.55, 170 142 M170 142 C132.99 139.02, 94.07 145.71, 32 142 M170 142 C127.72 140.58, 86.38 140.76, 32 142 M32 142 C7.55 143.41, 0.68 130.14, 0 110 M32 142 C9.6 146.31, -1.52 130.91, 0 110 M0 110 C0.57 90.85, -2.56 67.6, 0 32 M0 110 C2.73 92.57, -0.32 75.28, 0 32 M0 32 C-3.39 7.58, 7.42 -3.95, 32 0 M0 32 C2.62 14.44, 9.07 -4.36, 32 0" stroke="#000000" stroke-width="1" fill="none"></path></g><g transform="translate(1584 434) rotate(0 88 35)"><text x="88" y="25" font-family="Virgil, Segoe UI Emoji" font-size="28px" fill="#000000" text-anchor="middle" style="white-space: pre;" direction="ltr">promtp user </text><text x="88" y="60" font-family="Virgil, Segoe UI Emoji" font-size="28px" fill="#000000" text-anchor="middle" style="white-space: pre;" direction="ltr">to login</text></g></svg>